<?xml version="1.0" standalone="no"?>
<!DOCTYPE svg PUBLIC "-//W3C//DTD SVG 20010904//EN"
 "http://www.w3.org/TR/2001/REC-SVG-20010904/DTD/svg10.dtd">
<svg version="1.0" xmlns="http://www.w3.org/2000/svg"
 width="318.000000pt" height="318.000000pt" viewBox="0 0 318.000000 318.000000"
 preserveAspectRatio="xMidYMid meet">
<metadata>
Created by potrace 1.16, written by Peter Selinger 2001-2019
</metadata>
<g transform="translate(0.000000,318.000000) scale(0.100000,-0.100000)"
fill="#000000" stroke="none">
<path d="M1425 3072 c-5 -4 -10 -14 -10 -22 0 -10 -9 -14 -27 -13 -19 1 -28
-3 -28 -13 0 -8 -4 -14 -10 -14 -5 0 -10 -7 -10 -15 0 -8 -5 -15 -10 -15 -5 0
-9 4 -7 9 1 5 -2 9 -8 9 -5 1 -9 -6 -7 -15 3 -12 -2 -14 -22 -9 -28 7 -36 -8
-10 -18 24 -9 7 -24 -25 -22 -17 1 -28 -2 -25 -6 3 -4 12 -8 20 -8 18 0 18
-19 0 -26 -8 -3 -16 -14 -19 -25 -4 -16 -2 -17 15 -8 11 6 22 8 25 5 6 -5 -40
-26 -57 -26 -5 0 -12 -11 -16 -25 -3 -14 -10 -25 -15 -25 -5 0 -9 -9 -9 -21 0
-11 -5 -29 -10 -40 -9 -15 -7 -21 5 -26 11 -4 15 -13 11 -26 -3 -12 3 -31 15
-45 20 -27 25 -22 9 8 -16 29 6 33 24 5 10 -15 12 -25 5 -25 -16 0 -5 -25 12
-26 30 -2 34 -5 19 -14 -8 -5 -11 -12 -7 -16 3 -4 13 -1 21 5 12 10 15 8 19
-11 l4 -23 8 23 c11 34 21 26 20 -19 0 -22 5 -45 13 -51 32 -27 63 -117 63
-182 0 -74 -15 -138 -36 -156 -19 -16 -19 -40 0 -40 8 0 15 -4 15 -10 0 -5 -4
-10 -10 -10 -16 0 -11 -47 6 -54 21 -8 26 -8 20 3 -3 5 8 11 24 15 17 3 30 10
30 16 0 5 -3 9 -7 9 -20 -3 -24 2 -12 17 11 14 15 13 31 -8 18 -23 18 -22 13
47 -3 39 -2 64 1 58 10 -21 25 -14 22 10 -3 21 0 22 64 22 49 0 72 4 84 17 16
15 18 15 39 -10 12 -15 25 -34 28 -42 4 -11 6 -11 6 -2 1 8 -8 25 -19 39 -11
14 -20 34 -20 44 0 23 -3 23 -42 3 -21 -11 -43 -14 -71 -10 -45 8 -86 31 -65
38 9 3 4 13 -15 30 -16 15 -30 41 -34 62 -3 20 -9 34 -13 31 -9 -5 -40 94 -40
129 l0 27 38 -21 c45 -25 80 -23 96 5 6 11 12 22 14 25 2 2 7 -2 12 -10 15
-25 20 -5 8 28 -14 35 -30 43 -98 47 -62 4 -60 4 -60 14 0 5 10 7 23 4 l22 -5
-22 16 c-13 10 -23 23 -23 29 0 8 4 7 9 -2 8 -12 13 -8 28 17 10 18 24 32 31
32 10 0 9 -4 -2 -16 -21 -21 -20 -34 3 -34 11 0 23 -4 26 -10 3 -5 10 -10 16
-10 12 0 12 37 -1 42 -12 4 -1 78 11 78 5 0 9 -9 9 -19 0 -11 5 -23 11 -27 8
-4 8 -9 0 -17 -16 -16 -14 -27 5 -27 11 0 14 -6 9 -20 -8 -26 1 -26 15 1 7 13
8 25 2 32 -5 7 -13 28 -16 47 -5 23 -4 30 2 21 8 -10 10 -11 14 -1 6 18 58 4
58 -14 0 -11 7 -13 30 -6 18 5 30 5 30 -1 0 -8 -15 -13 -32 -10 -16 2 -7 -15
12 -27 12 -7 20 -18 19 -25 -4 -36 2 -47 28 -47 25 0 26 0 8 20 -20 22 -14 26
15 10 15 -8 17 -15 11 -33 -9 -22 10 -53 23 -39 4 3 4 -1 1 -10 -4 -9 -2 -19
4 -22 12 -8 26 38 17 53 -3 5 0 12 6 14 7 3 3 6 -9 6 -13 1 -23 6 -23 12 0 5
4 8 9 5 5 -3 11 1 15 9 3 8 1 15 -4 15 -6 0 -10 5 -10 10 0 6 5 9 11 8 6 -2
13 14 15 35 4 32 2 38 -13 35 -14 -2 -18 4 -18 30 0 17 3 32 8 32 4 0 7 7 7
15 0 8 5 15 11 15 6 0 9 -7 6 -15 -4 -8 -2 -17 3 -20 6 -4 10 5 10 20 0 33
-26 44 -45 19 -20 -26 -19 -4 1 24 14 20 14 22 -1 22 -9 0 -13 5 -10 10 4 6
-9 17 -29 25 -19 8 -39 22 -44 31 -6 10 -16 15 -26 11 -10 -4 -16 -1 -16 7 0
21 -88 26 -113 6 -18 -15 -21 -14 -52 17 -33 33 -51 39 -70 25z m32 -18 c-3
-3 -12 -4 -19 -1 -8 3 -5 6 6 6 11 1 17 -2 13 -5z m190 -30 c-3 -3 -12 -4 -19
-1 -8 3 -5 6 6 6 11 1 17 -2 13 -5z m-7 -20 c0 -3 -6 -12 -14 -19 -17 -18 -29
-8 -13 11 12 14 27 18 27 8z m31 -13 c-11 -7 -9 -13 7 -29 12 -12 17 -24 12
-27 -6 -4 -10 -1 -10 4 0 6 -7 11 -15 11 -8 0 -15 8 -15 18 0 21 8 32 24 32 6
0 5 -4 -3 -9z m75 -48 c-8 -8 -36 5 -36 17 0 7 6 7 21 0 11 -7 18 -14 15 -17z
m4 -35 c0 -13 -24 -21 -28 -10 -2 7 -8 10 -13 6 -5 -3 -9 -1 -9 4 0 6 11 9 25
8 14 0 25 -4 25 -8z m-451 -71 c0 -21 -1 -21 -9 -2 -12 28 -12 37 0 30 6 -3
10 -16 9 -28z m381 19 c0 -3 -4 -8 -10 -11 -5 -3 -10 -1 -10 4 0 6 5 11 10 11
6 0 10 -2 10 -4z m25 -26 c3 -5 2 -10 -4 -10 -5 0 -13 5 -16 10 -3 6 -2 10 4
10 5 0 13 -4 16 -10z m-475 -15 c-7 -9 -15 -13 -17 -11 -7 7 7 26 19 26 6 0 6
-6 -2 -15z m60 -30 c0 -5 -5 -3 -10 5 -5 8 -10 20 -10 25 0 6 5 3 10 -5 5 -8
10 -19 10 -25z m448 3 c5 -7 13 -29 16 -48 7 -34 7 -35 -8 -10 -8 14 -12 28
-9 33 3 5 -3 15 -13 22 -11 8 -14 15 -8 15 6 0 16 -6 22 -12z m-228 -10 c0 -4
-6 -8 -14 -8 -8 0 -17 4 -20 8 -2 4 4 8 15 8 10 0 19 -4 19 -8z m-83 -40 c-3
-8 -6 -5 -6 6 -1 11 2 17 5 13 3 -3 4 -12 1 -19z m-229 0 c-2 -6 -10 -14 -16
-16 -7 -2 -10 2 -6 12 7 18 28 22 22 4z m308 -13 c17 -16 14 -18 -10 -9 -9 3
-16 10 -16 15 0 13 9 11 26 -6z m-81 -85 c3 -5 1 -10 -4 -10 -6 0 -11 5 -11
10 0 6 2 10 4 10 3 0 8 -4 11 -10z m-122 -14 c3 -8 -1 -20 -9 -27 -12 -10 -14
-8 -10 12 6 30 5 29 10 29 2 0 6 -6 9 -14z m197 -6 c-13 -8 -12 -10 3 -10 9 0
17 -4 17 -10 0 -5 -14 -10 -31 -10 -17 0 -28 4 -24 10 3 6 -1 10 -9 10 -9 0
-16 5 -16 10 0 6 17 10 38 10 27 0 33 -3 22 -10z m10 -56 c0 -11 -5 -14 -16
-10 -9 3 -18 6 -20 6 -3 0 -2 5 1 10 10 16 35 12 35 -6z m-40 -309 c0 -8 0
-17 0 -20 0 -16 -15 -2 -16 15 -1 11 3 20 7 20 5 0 9 -7 9 -15z m-39 -148
c-17 -17 -24 -1 -9 22 11 18 14 19 16 5 2 -9 -1 -21 -7 -27z"/>
<path d="M1851 2814 c0 -11 3 -14 6 -6 3 7 2 16 -1 19 -3 4 -6 -2 -5 -13z"/>
<path d="M1440 2702 c0 -5 7 -9 15 -9 8 0 12 4 9 9 -3 4 -9 8 -15 8 -5 0 -9
-4 -9 -8z"/>
<path d="M1485 2690 c-8 -13 -1 -24 14 -19 6 3 7 10 2 18 -6 10 -10 10 -16 1z"/>
<path d="M1582 2678 c-7 -7 -12 -19 -12 -27 0 -11 5 -8 16 7 18 25 15 39 -4
20z"/>
<path d="M1668 2647 c-21 -8 -48 -43 -48 -62 0 -2 14 3 31 12 23 11 34 12 42
4 8 -8 6 -11 -7 -11 -9 0 -14 -5 -11 -10 4 -6 1 -17 -5 -25 -19 -23 23 -20 43
3 27 29 22 60 -10 65 -25 4 -25 4 5 6 22 0 32 5 30 14 -6 16 -36 18 -70 4z"/>
<path d="M1750 2598 c0 -27 15 -54 23 -42 8 13 -4 64 -14 64 -5 0 -9 -10 -9
-22z"/>
<path d="M1815 2590 c3 -5 8 -10 11 -10 2 0 4 5 4 10 0 6 -5 10 -11 10 -5 0
-7 -4 -4 -10z"/>
<path d="M1294 2517 c3 -10 6 -23 6 -28 0 -5 5 -9 10 -9 14 0 12 13 -6 36 -14
17 -15 17 -10 1z"/>
<path d="M1555 2490 c-3 -5 -1 -10 4 -10 6 0 11 5 11 10 0 6 -2 10 -4 10 -3 0
-8 -4 -11 -10z"/>
<path d="M1568 2462 c-26 -5 -22 -19 8 -25 32 -6 64 2 64 15 0 6 -7 7 -16 4
-9 -4 -22 -3 -28 2 -6 5 -19 7 -28 4z"/>
<path d="M1548 2386 c-33 -12 -38 -31 -5 -22 12 3 47 6 77 6 47 1 52 2 35 12
-25 15 -72 17 -107 4z"/>
<path d="M1560 2340 c18 -12 73 -14 66 -2 -2 4 -22 9 -43 10 -28 2 -34 0 -23
-8z"/>
<path d="M2091 2080 c27 -43 40 -120 40 -234 0 -159 16 -443 28 -499 12 -52
16 -268 7 -332 -3 -22 -10 -172 -15 -333 -9 -259 -12 -297 -29 -325 -11 -18
-25 -54 -32 -81 -12 -44 -15 -47 -26 -31 -8 10 -10 23 -6 29 5 6 8 40 7 76 -3
104 -3 106 -17 92 -7 -7 -11 -36 -10 -69 1 -32 -3 -73 -9 -90 -12 -36 -39 -45
-39 -13 0 11 6 20 14 20 11 0 12 8 3 41 -7 31 -7 47 1 60 16 25 15 39 -2 39
-12 0 -10 11 8 56 13 31 31 61 40 66 9 5 16 16 16 23 0 8 4 15 9 15 6 0 10 8
9 17 0 10 5 46 11 80 11 59 2 178 -15 205 -3 5 -8 28 -11 51 -2 23 -8 44 -13
47 -5 3 -12 41 -15 84 -3 43 -11 88 -17 99 -6 11 -12 68 -13 126 -3 134 -15
246 -26 230 -19 -31 -31 225 -14 301 18 79 -2 118 -31 61 -11 -22 -12 -22 -24
-5 -11 17 -11 18 -6 1 9 -30 34 -206 41 -288 3 -42 10 -91 15 -110 6 -19 15
-122 20 -229 7 -148 17 -229 39 -335 16 -77 32 -166 36 -198 8 -65 -2 -174
-15 -161 -5 5 -19 55 -31 112 -15 69 -26 102 -35 102 -8 0 -14 -8 -15 -17 0
-14 -2 -14 -9 4 -11 28 -24 30 -285 44 -163 9 -241 9 -300 1 -44 -6 -129 -14
-188 -18 -94 -6 -109 -9 -118 -27 -6 -11 -15 -72 -20 -136 -9 -106 -12 -120
-40 -160 -17 -24 -24 -41 -17 -38 12 4 14 -6 10 -51 -4 -41 2 -77 21 -141 15
-47 29 -121 33 -164 l6 -77 203 0 204 0 11 43 c6 23 22 76 36 117 17 53 22 86
18 110 -14 72 6 21 25 -64 11 -49 24 -92 30 -95 5 -4 18 -29 28 -56 l19 -50
212 -3 212 -2 0 59 c0 59 1 61 53 113 51 50 54 57 65 128 7 41 12 122 11 180
0 58 1 213 4 345 2 132 0 296 -5 365 -5 69 -13 215 -18 325 -18 405 -36 544
-77 576 -17 13 -17 12 -2 -11z m-64 -972 c-3 -8 -6 -5 -6 6 -1 11 2 17 5 13 3
-3 4 -12 1 -19z m10 -85 c-3 -10 -5 -4 -5 12 0 17 2 24 5 18 2 -7 2 -21 0 -30z
m114 -716 c-1 -34 -9 -73 -17 -87 -13 -25 -13 -24 -14 15 0 45 21 147 30 139
3 -3 3 -33 1 -67z m16 -19 c-3 -8 -6 -5 -6 6 -1 11 2 17 5 13 3 -3 4 -12 1
-19z m-125 -97 c-6 -3 -16 -20 -23 -36 -6 -17 -13 -24 -16 -18 -3 7 6 30 18
50 13 21 25 31 27 24 2 -7 0 -16 -6 -20z m47 0 c8 -14 7 -20 -2 -24 -7 -3 -13
5 -13 19 -2 29 2 30 15 5z m-104 -51 c-12 -20 -110 -70 -135 -69 -22 0 -20 2
10 13 19 7 53 24 75 39 42 27 60 34 50 17z m64 -12 c-9 -16 -14 -19 -17 -9 -2
7 2 17 9 22 20 13 21 11 8 -13z m-85 -37 c-10 -10 -21 -16 -24 -14 -3 3 4 11
14 19 28 20 33 17 10 -5z"/>
<path d="M1205 2048 c-47 -15 -135 -61 -149 -78 -37 -42 -48 -173 -25 -290 9
-46 9 -78 0 -133 -6 -39 -16 -124 -21 -187 -7 -80 -19 -143 -39 -206 -18 -54
-37 -144 -46 -220 -9 -71 -30 -185 -46 -254 -17 -69 -37 -159 -46 -200 -8 -41
-19 -95 -24 -120 -7 -31 -6 -66 3 -114 11 -57 18 -72 43 -91 28 -21 65 -38 65
-31 0 2 -18 16 -40 31 -29 20 -41 36 -45 61 -3 19 -7 49 -10 68 -4 24 -1 39
11 50 8 9 14 22 11 29 -2 6 2 26 10 44 16 40 17 56 1 47 -10 -6 -10 -4 -2 7 6
8 14 42 17 76 6 58 31 149 64 238 9 22 17 54 18 70 2 17 8 61 14 98 7 37 10
71 7 75 -7 11 21 161 32 175 5 7 12 24 16 40 3 15 11 27 16 27 13 0 23 -45 16
-74 -3 -12 -3 -26 0 -29 11 -11 34 5 34 25 0 10 4 17 9 14 10 -7 3 -44 -11
-63 -5 -7 -7 -17 -4 -22 4 -5 2 -12 -2 -15 -5 -3 -8 -24 -6 -46 1 -22 -2 -40
-7 -40 -5 0 -9 -13 -9 -29 0 -17 -5 -33 -11 -36 -6 -4 -8 -13 -6 -20 3 -6 -3
-19 -14 -28 -10 -9 -21 -29 -24 -44 -3 -15 -26 -90 -52 -167 -25 -76 -41 -141
-37 -145 5 -3 10 -15 11 -26 1 -11 7 -42 13 -69 11 -42 10 -53 -4 -77 -9 -15
-13 -35 -10 -44 5 -13 10 -8 21 22 9 26 11 60 7 109 -6 67 -4 76 31 155 73
163 95 222 95 250 0 15 6 34 13 41 8 7 12 19 9 26 -2 6 1 12 7 12 6 0 11 17
11 38 0 43 18 160 27 182 4 8 7 83 8 165 1 90 7 165 14 188 10 28 10 49 2 85
-51 231 -51 216 -6 312 31 66 32 71 10 45 -13 -16 -30 -42 -36 -56 -12 -31
-41 -42 -64 -25 -12 9 -13 18 -4 50 12 43 32 69 44 58 5 -4 5 -2 2 5 -5 8 7
10 42 9 46 -2 49 -1 64 31 8 18 14 33 13 32 0 -1 -14 -6 -31 -11z m-35 -32 c0
-2 -7 -7 -16 -10 -8 -3 -12 -2 -9 4 6 10 25 14 25 6z m-70 -608 c0 -61 -8 -98
-21 -98 -10 0 -12 58 -3 113 10 54 24 45 24 -15z"/>
<path d="M1622 1755 c6 -19 15 -32 19 -29 9 5 -10 64 -21 64 -4 0 -3 -16 2
-35z"/>
<path d="M1470 1775 c0 -18 31 -75 40 -75 7 0 5 9 -4 22 -9 12 -16 30 -16 40
0 10 -4 18 -10 18 -5 0 -10 -2 -10 -5z"/>
<path d="M1536 1758 c10 -36 26 -58 20 -28 -3 14 -6 31 -6 38 0 6 -5 12 -11
12 -6 0 -8 -9 -3 -22z"/>
<path d="M1560 1773 c0 -22 19 -63 30 -63 6 0 5 10 -2 28 -14 33 -28 50 -28
35z"/>
<path d="M1390 1760 c-13 -9 -13 -10 0 -9 8 1 26 5 40 9 l25 8 -25 1 c-14 0
-32 -4 -40 -9z"/>
<path d="M1322 1710 c43 -52 59 -52 18 0 -17 22 -36 40 -41 40 -6 0 5 -18 23
-40z"/>
<path d="M1405 1740 l-30 -8 35 -2 c33 -2 33 -3 10 -10 -21 -7 -21 -8 -5 -9
11 0 27 4 35 9 11 7 11 10 2 10 -7 0 -10 5 -7 10 7 11 3 11 -40 0z"/>
<path d="M1264 1706 c5 -38 12 -53 21 -45 2 3 -3 23 -11 44 l-15 40 5 -39z"/>
<path d="M1405 1690 c-7 -12 22 -12 50 0 17 7 15 9 -12 9 -17 1 -35 -3 -38 -9z"/>
<path d="M1575 1665 c14 -63 18 -75 26 -75 12 0 10 9 -12 55 -10 22 -17 31
-14 20z"/>
<path d="M1651 1664 c0 -11 3 -14 6 -6 3 7 2 16 -1 19 -3 4 -6 -2 -5 -13z"/>
<path d="M1453 1659 c-8 -8 -7 -24 5 -57 8 -26 17 -41 20 -34 2 7 -2 26 -8 43
-15 36 -11 41 43 50 l42 6 -45 2 c-26 0 -51 -4 -57 -10z"/>
<path d="M1319 1633 c-11 -13 -11 -15 -1 -9 7 4 34 11 60 16 l47 8 -46 1 c-33
1 -51 -4 -60 -16z"/>
<path d="M1270 1628 c0 -7 9 -26 20 -43 24 -36 25 -30 5 19 -16 37 -25 46 -25
24z"/>
<path d="M1517 1614 c-16 -9 -27 -18 -24 -21 6 -5 67 24 67 32 0 8 -14 5 -43
-11z"/>
<path d="M1660 1623 c0 -4 5 -15 10 -23 8 -13 10 -13 10 2 0 9 -4 20 -10 23
-5 3 -10 3 -10 -2z"/>
<path d="M1220 1615 c0 -20 37 -74 54 -79 27 -7 33 0 7 9 -11 3 -26 22 -33 41
-6 18 -16 34 -20 34 -4 0 -8 -2 -8 -5z"/>
<path d="M1375 1581 c-33 -4 -44 -8 -33 -13 20 -8 86 1 94 13 3 5 2 8 -3 7 -4
0 -30 -4 -58 -7z"/>
<path d="M1754 1548 c21 -30 20 -75 -1 -87 -17 -10 -17 -10 -1 -11 36 0 45 69
15 108 -17 22 -29 13 -13 -10z"/>
<path d="M1518 1553 c-16 -2 -28 -8 -28 -12 0 -8 100 6 109 15 5 5 -41 3 -81
-3z"/>
<path d="M1622 1528 c6 -18 15 -37 21 -43 7 -7 8 -4 3 8 -3 11 -9 30 -12 43
-3 13 -10 24 -15 24 -4 0 -3 -15 3 -32z"/>
<path d="M1682 1545 c0 -11 4 -31 8 -45 6 -20 8 -21 8 -5 0 11 -4 31 -8 45 -6
20 -8 21 -8 5z"/>
<path d="M1320 1540 c0 -5 7 -7 15 -4 8 4 15 8 15 10 0 2 -7 4 -15 4 -8 0 -15
-4 -15 -10z"/>
<path d="M1461 1546 c-2 -18 23 -86 31 -86 4 0 8 3 7 8 -1 13 -37 87 -38 78z"/>
<path d="M1374 1525 c-18 -14 -17 -14 11 -6 57 17 60 19 34 20 -14 1 -34 -6
-45 -14z"/>
<path d="M1553 1518 c17 -48 17 -57 0 -61 -14 -4 -13 -5 5 -6 15 -1 22 5 22
17 0 29 -12 62 -22 62 -6 0 -8 -6 -5 -12z"/>
<path d="M1321 1466 c-21 -25 -51 -29 -72 -10 -10 9 -19 12 -19 7 0 -19 28
-34 69 -38 22 -2 43 0 46 4 3 5 -5 7 -17 3 -23 -5 -23 -5 -4 16 11 12 17 24
14 27 -3 3 -11 -1 -17 -9z"/>
<path d="M1373 1458 c16 -10 87 -10 87 0 0 5 -22 8 -49 8 -27 -1 -44 -4 -38
-8z"/>
<path d="M1726 1385 c-4 -12 -23 -15 -83 -15 -70 0 -122 -5 -305 -29 -36 -5
-61 -4 -68 3 -7 7 -10 6 -10 -2 0 -23 26 -23 176 -6 82 10 180 18 217 18 64 1
86 11 87 39 0 12 -8 8 -14 -8z"/>
<path d="M1193 1203 c-13 -2 -23 -8 -23 -13 0 -4 8 -6 18 -3 16 4 18 0 14 -27
-4 -28 -32 -56 -45 -44 -3 3 -8 1 -12 -5 -9 -16 40 -14 52 2 6 6 13 23 15 37
3 14 9 33 13 43 4 9 3 16 -1 16 -5 -1 -19 -4 -31 -6z"/>
<path d="M2031 1194 c0 -11 3 -14 6 -6 3 7 2 16 -1 19 -3 4 -6 -2 -5 -13z"/>
<path d="M1918 1175 c-6 -30 -3 -43 8 -33 3 4 4 19 2 35 l-3 28 -7 -30z"/>
<path d="M1187 1052 c-31 -34 -14 -92 27 -92 26 0 36 17 36 59 0 48 -34 66
-63 33z m53 -37 c0 -12 -7 -29 -16 -36 -14 -11 -18 -10 -30 6 -18 25 -18 40 2
60 20 20 44 4 44 -30z"/>
<path d="M1200 1015 c0 -8 5 -15 10 -15 6 0 10 7 10 15 0 8 -4 15 -10 15 -5 0
-10 -7 -10 -15z"/>
<path d="M1134 1003 c7 -41 -17 -138 -27 -113 -3 9 -6 5 -6 -10 l0 -25 19 23
c25 30 40 162 17 162 -5 0 -6 -17 -3 -37z"/>
<path d="M2020 469 c-7 -11 -10 -23 -7 -25 2 -2 9 7 15 21 14 30 7 33 -8 4z"/>
<path d="M866 402 c-3 -5 -4 -52 -4 -105 2 -85 4 -99 25 -121 31 -34 63 -43
79 -22 8 12 13 13 16 5 3 -8 9 -9 17 -5 11 7 11 10 0 17 -12 8 -12 11 0 18 19
12 1 36 -34 45 -20 5 -25 13 -25 37 0 26 -2 29 -14 20 -18 -15 -30 1 -21 30 5
14 3 19 -3 15 -6 -4 -8 2 -5 13 5 21 -21 68 -31 53z m71 -178 c9 -23 -13 -40
-32 -24 -12 10 -13 16 -4 26 15 18 28 18 36 -2z m23 -64 c0 -5 -9 -6 -20 -3
-11 3 -20 9 -20 13 0 5 9 6 20 3 11 -3 20 -9 20 -13z"/>
</g>
</svg>
