<?xml version="1.0" standalone="no"?>
<!DOCTYPE svg PUBLIC "-//W3C//DTD SVG 20010904//EN"
 "http://www.w3.org/TR/2001/REC-SVG-20010904/DTD/svg10.dtd">
<svg version="1.0" xmlns="http://www.w3.org/2000/svg"
 width="1280.000000pt" height="1600.000000pt" viewBox="0 0 1280.000000 1600.000000"
 preserveAspectRatio="xMidYMid meet">
<metadata>
Created by potrace 1.16, written by Peter Selinger 2001-2019
</metadata>
<g transform="translate(0.000000,1600.000000) scale(0.100000,-0.100000)"
fill="#000000" stroke="none">
<path d="M6795 15529 c-16 -4 -22 -7 -13 -8 9 0 19 -5 22 -10 4 -5 -4 -7 -16
-4 -22 4 -23 4 -4 -11 19 -15 17 -16 -30 -17 -57 -1 -103 -12 -88 -21 5 -4 22
-5 37 -4 41 5 22 -11 -21 -16 -37 -5 -173 -88 -203 -124 -13 -15 -12 -16 11
-9 48 14 134 56 167 81 46 35 143 77 143 62 0 -7 7 -3 16 8 8 10 12 13 8 5 -3
-7 -1 -17 7 -22 10 -6 6 -11 -16 -19 -15 -6 -33 -17 -39 -24 -6 -7 -32 -22
-59 -32 -30 -12 -45 -24 -42 -32 3 -9 -2 -12 -18 -10 -14 2 -22 -2 -22 -12 0
-8 -9 -20 -20 -27 -39 -24 -4 -13 49 16 30 15 67 31 82 35 28 7 28 7 8 -8 -11
-8 -46 -26 -76 -39 -54 -24 -99 -70 -160 -166 -20 -31 -23 -55 -5 -46 6 4 4 0
-6 -8 -10 -8 -33 -58 -51 -110 -19 -52 -39 -104 -46 -116 -6 -13 -10 -25 -7
-27 7 -7 57 97 57 119 0 10 9 21 20 24 11 3 20 11 20 18 0 16 39 105 46 105 3
0 2 -10 -1 -21 -5 -15 -4 -19 5 -14 6 4 10 18 7 31 -2 13 0 22 5 21 5 -1 22
23 38 53 16 30 40 67 53 81 22 24 85 54 94 45 3 -2 -5 -7 -16 -11 -12 -3 -28
-23 -37 -43 -8 -20 -19 -39 -24 -42 -5 -3 -6 -11 -2 -17 6 -9 14 -9 34 1 20
11 28 11 31 3 2 -7 13 6 25 28 23 44 67 95 82 95 12 0 13 -17 3 -22 -17 -7
-49 -64 -45 -81 3 -16 6 -15 23 7 10 13 19 27 19 31 0 12 87 119 121 150 26
24 29 25 14 5 -11 -13 -24 -30 -30 -36 -43 -49 -62 -74 -77 -101 -21 -36 -22
-43 -8 -43 6 0 10 6 10 14 0 8 5 18 12 22 8 5 9 2 4 -12 -4 -10 -10 -32 -13
-49 -6 -27 -5 -29 10 -16 9 7 17 18 17 23 0 19 62 137 81 154 17 15 19 15 19
1 0 -9 -5 -19 -10 -22 -6 -4 -8 -11 -5 -16 4 -5 2 -9 -3 -9 -11 0 -47 -78 -40
-85 5 -6 54 62 77 108 20 39 24 27 6 -16 -17 -42 -20 -77 -4 -77 5 0 7 -5 4
-10 -4 -6 -10 -8 -15 -5 -4 3 -10 -10 -13 -28 -5 -32 2 -52 10 -29 3 7 14 17
26 24 19 10 20 9 10 -4 -18 -22 -44 -98 -33 -98 5 0 21 12 35 27 22 24 25 25
25 9 0 -19 0 -19 20 0 10 10 26 24 34 31 8 7 20 38 27 70 7 32 14 50 17 40 2
-9 -1 -40 -7 -68 -15 -70 -14 -90 4 -59 8 14 14 32 15 41 0 8 7 24 16 35 14
18 15 15 11 -41 -5 -57 -4 -59 9 -30 8 18 12 49 9 80 l-5 50 15 -50 c8 -27 15
-68 16 -90 0 -43 17 -97 18 -62 1 14 6 17 21 12 11 -3 20 -3 20 0 0 21 -34
121 -44 128 -8 5 -7 9 2 16 10 6 11 13 3 27 -21 38 -41 84 -37 84 10 0 56 -92
76 -152 12 -36 28 -69 37 -72 10 -4 12 -10 6 -19 -5 -6 -6 -30 -2 -52 l6 -40
3 40 c1 22 4 32 7 23 7 -29 24 -20 17 10 l-5 27 20 -24 c12 -13 21 -34 21 -47
0 -26 16 -41 23 -22 3 7 6 -1 6 -19 1 -35 21 -57 21 -24 0 12 5 21 11 21 5 0
8 -4 5 -8 -3 -5 0 -26 6 -48 6 -21 13 -33 15 -26 11 29 -22 116 -78 207 -32
54 -59 100 -59 102 0 3 -10 19 -22 36 l-22 32 24 -20 c25 -21 74 -73 108 -115
l21 -25 -6 25 c-6 22 -72 117 -115 164 -10 11 -16 22 -13 24 9 9 77 -51 97
-84 11 -19 24 -34 29 -34 5 0 9 -4 9 -9 0 -18 74 -135 77 -124 6 17 -52 129
-84 164 -15 16 -52 54 -82 84 -54 54 -63 77 -21 55 11 -6 26 -10 33 -7 25 8
-123 60 -209 73 -30 4 -45 2 -57 -10 -14 -15 -18 -14 -49 11 -18 15 -41 37
-51 47 -15 16 -20 18 -26 7 -7 -11 -11 -10 -19 5 -18 35 -116 51 -197 33z
m-215 -173 c0 -2 -7 -7 -16 -10 -8 -3 -12 -2 -9 4 6 10 25 14 25 6z m240 -6
c-8 -5 -22 -10 -30 -10 -13 0 -13 1 0 10 8 5 22 10 30 10 13 0 13 -1 0 -10z
m95 0 c-3 -5 -12 -10 -18 -10 -7 0 -6 4 3 10 19 12 23 12 15 0z m212 -172 c-3
-8 -6 -5 -6 6 -1 11 2 17 5 13 3 -3 4 -12 1 -19z m227 -40 c4 -17 2 -28 -4
-28 -5 0 -10 14 -10 32 0 36 4 35 14 -4z m86 -113 c0 -5 -5 -3 -10 5 -5 8 -10
20 -10 25 0 6 5 3 10 -5 5 -8 10 -19 10 -25z"/>
<path d="M6490 15269 c-58 -40 -71 -52 -45 -44 19 7 19 6 -1 -12 -12 -10 -24
-27 -28 -37 -3 -10 -9 -16 -13 -13 -3 4 -13 -4 -22 -16 -31 -41 -63 -98 -58
-103 3 -3 17 15 32 40 15 25 31 44 37 43 6 -1 25 18 42 43 17 25 50 64 73 88
50 50 45 53 -17 11z"/>
<path d="M6825 15156 c-9 -21 -14 -43 -12 -49 2 -6 11 9 21 32 9 24 14 46 12
49 -3 3 -13 -12 -21 -32z"/>
<path d="M6761 15144 c-12 -20 -20 -39 -17 -41 5 -5 46 57 46 70 0 15 -8 6
-29 -29z"/>
<path d="M6868 15098 c-4 -8 -9 -37 -12 -64 l-6 -49 15 54 c14 51 16 95 3 59z"/>
<path d="M6901 15054 c0 -11 3 -14 6 -6 3 7 2 16 -1 19 -3 4 -6 -2 -5 -13z"/>
<path d="M5840 14885 c0 -8 2 -15 4 -15 2 0 6 7 10 15 3 8 1 15 -4 15 -6 0
-10 -7 -10 -15z"/>
<path d="M5797 14854 c-4 -4 -7 -17 -7 -28 1 -19 1 -20 11 -3 11 19 8 43 -4
31z"/>
<path d="M6100 14699 c-6 -24 -14 -53 -17 -64 -3 -11 -2 -17 1 -14 9 9 37 112
31 117 -2 2 -9 -16 -15 -39z"/>
<path d="M6047 14614 c-4 -4 -7 -17 -7 -28 1 -19 1 -20 11 -3 11 19 8 43 -4
31z"/>
<path d="M6076 14575 c-3 -9 -5 -29 -5 -43 1 -20 3 -17 9 13 8 43 7 57 -4 30z"/>
<path d="M6191 14524 c0 -11 3 -14 6 -6 3 7 2 16 -1 19 -3 4 -6 -2 -5 -13z"/>
<path d="M6026 14504 c-4 -9 -4 -19 -1 -22 2 -3 7 3 11 12 4 9 4 19 1 22 -2 3
-7 -3 -11 -12z"/>
<path d="M6286 14454 c-20 -60 -20 -60 7 -31 20 21 28 23 88 19 56 -3 69 -8
78 -26 9 -17 10 -12 8 29 l-2 50 -81 3 -82 3 -16 -47z m141 20 c-3 -3 -12 -4
-19 -1 -8 3 -5 6 6 6 11 1 17 -2 13 -5z"/>
<path d="M6171 14473 c-1 -6 -4 -20 -7 -30 -5 -17 -5 -17 6 0 6 10 9 23 6 30
-3 9 -5 9 -5 0z"/>
<path d="M5670 14435 c0 -18 -16 -20 -24 -2 -3 6 -4 3 -3 -8 1 -14 -4 -20 -16
-18 -15 1 -17 -4 -13 -22 4 -14 1 -27 -6 -31 -8 -5 -9 -2 -5 9 4 11 1 17 -9
17 -12 0 -13 -4 -3 -22 7 -13 17 -27 23 -31 6 -5 -3 -5 -20 -2 -28 5 -32 3
-39 -22 -4 -15 -9 -37 -10 -48 -1 -11 -5 -28 -10 -37 -10 -24 5 -22 35 5 31
28 60 72 60 92 0 8 4 15 9 15 5 0 11 12 14 28 3 15 15 37 26 49 25 26 27 43 6
43 -8 0 -15 -7 -15 -15z"/>
<path d="M6632 14400 c0 -14 2 -19 5 -12 2 6 2 18 0 25 -3 6 -5 1 -5 -13z"/>
<path d="M5680 14385 c-7 -9 -11 -17 -9 -20 3 -2 10 5 17 15 14 24 10 26 -8 5z"/>
<path d="M5480 14309 c0 -5 5 -7 10 -4 6 3 10 8 10 11 0 2 -4 4 -10 4 -5 0
-10 -5 -10 -11z"/>
<path d="M6383 14273 c9 -2 23 -2 30 0 6 3 -1 5 -18 5 -16 0 -22 -2 -12 -5z"/>
<path d="M6632 14260 c0 -14 2 -19 5 -12 2 6 2 18 0 25 -3 6 -5 1 -5 -13z"/>
<path d="M6469 14251 c29 -22 23 -52 -8 -44 -29 8 -26 -6 4 -17 14 -5 25 -14
25 -20 0 -13 -17 -13 -25 0 -15 25 -172 1 -212 -32 -18 -14 -29 17 -16 45 5
12 6 36 3 52 l-6 30 -6 -30 c-3 -16 -13 -55 -22 -85 -9 -30 -16 -69 -16 -87 0
-30 1 -31 23 -20 39 21 63 41 70 59 8 24 36 12 43 -18 7 -26 23 -33 85 -39 34
-4 44 0 65 22 13 14 24 32 24 39 0 21 18 17 44 -9 13 -13 29 -21 37 -19 21 7
8 -5 -26 -23 l-30 -16 30 5 c17 2 40 5 53 5 32 1 27 16 -16 55 -25 23 -44 53
-56 91 -21 61 -28 68 -66 72 l-25 3 24 -19z m-49 -117 c0 -8 -5 -12 -10 -9 -6
4 -8 11 -5 16 9 14 15 11 15 -7z"/>
<path d="M5443 14220 c-9 -16 -20 -30 -24 -30 -9 0 -19 -39 -11 -44 4 -2 19
20 34 50 29 59 30 72 1 24z"/>
<path d="M6575 14200 c-11 -18 7 -60 26 -60 23 0 23 -1 3 38 -17 35 -20 37
-29 22z"/>
<path d="M7780 14195 c9 -10 11 -20 5 -22 -6 -2 -8 -27 -6 -59 4 -74 16 -54
16 27 0 46 -4 64 -15 67 -13 5 -13 3 0 -13z"/>
<path d="M6076 14129 c-18 -37 -19 -39 -8 -39 9 0 36 59 29 66 -3 3 -12 -9
-21 -27z"/>
<path d="M7810 14136 c0 -14 5 -28 10 -31 6 -3 10 -16 9 -28 0 -21 -1 -21 -8
-2 -6 14 -9 5 -14 -33 -3 -29 -13 -62 -22 -75 -16 -22 -16 -22 -10 8 5 27 4
28 -5 7 -5 -13 -10 -58 -10 -100 1 -42 -1 -99 -4 -127 -5 -50 -5 -50 5 -10 5
22 19 70 30 107 11 37 18 72 15 77 -8 12 15 111 26 111 10 0 11 45 2 89 -8 37
-24 41 -24 7z"/>
<path d="M6150 14132 c0 -10 -5 -23 -12 -30 -6 -6 -8 -15 -4 -19 4 -4 11 -1
16 7 10 16 14 60 5 60 -3 0 -5 -8 -5 -18z"/>
<path d="M7230 14121 c-38 -8 -100 -40 -100 -53 0 -11 -1 -11 54 17 27 14 64
25 83 25 18 0 33 5 33 10 0 11 -17 11 -70 1z"/>
<path d="M5602 14073 c-10 -15 -23 -39 -27 -53 -7 -24 -7 -24 9 -5 8 11 16 24
16 29 0 5 7 18 17 28 9 10 14 21 11 24 -3 3 -15 -7 -26 -23z"/>
<path d="M6041 14046 c-8 -9 -11 -19 -7 -23 9 -9 29 13 24 27 -2 8 -8 7 -17
-4z"/>
<path d="M6270 14040 c0 -5 5 -10 10 -10 6 0 10 5 10 10 0 6 -4 10 -10 10 -5
0 -10 -4 -10 -10z"/>
<path d="M7190 14040 c-8 -4 -34 -16 -57 -26 -43 -17 -56 -34 -28 -34 8 0 15
-4 15 -10 0 -5 5 -10 10 -10 6 0 10 10 10 22 0 12 3 19 6 15 4 -3 19 0 35 8
15 8 30 15 33 15 2 0 7 -18 11 -41 8 -44 22 -53 94 -65 33 -5 42 -2 64 21 25
27 47 27 47 -1 0 -8 -6 -14 -12 -15 -7 0 -4 -4 7 -9 18 -7 17 -8 -10 -15 -29
-8 -28 -8 20 -23 29 -8 51 -10 53 -4 1 5 14 7 27 4 18 -3 25 0 25 12 0 9 -7
19 -15 22 -8 4 -15 10 -15 15 0 12 -25 37 -75 76 -57 44 -199 69 -245 43z
m127 -36 c-3 -3 -12 -4 -19 -1 -8 3 -5 6 6 6 11 1 17 -2 13 -5z"/>
<path d="M7776 14035 c-3 -8 -1 -15 4 -15 6 0 10 7 10 15 0 8 -2 15 -4 15 -2
0 -6 -7 -10 -15z"/>
<path d="M7498 14032 c-22 -4 -22 -9 -3 -29 19 -18 28 -12 23 14 -2 11 -10 17
-20 15z"/>
<path d="M5801 14007 c-13 -21 -12 -21 5 -5 10 10 16 20 13 22 -3 3 -11 -5
-18 -17z"/>
<path d="M6320 14019 c0 -5 5 -7 10 -4 6 3 10 8 10 11 0 2 -4 4 -10 4 -5 0
-10 -5 -10 -11z"/>
<path d="M6350 14020 c0 -5 5 -10 10 -10 6 0 10 5 10 10 0 6 -4 10 -10 10 -5
0 -10 -4 -10 -10z"/>
<path d="M7440 14017 c0 -8 6 -17 14 -20 9 -4 13 0 12 11 -3 20 -26 29 -26 9z"/>
<path d="M5707 13991 c-14 -17 -28 -27 -32 -23 -4 4 -6 0 -3 -8 2 -8 -5 -23
-16 -33 -12 -10 -16 -16 -9 -13 7 4 9 -1 6 -15 -4 -14 -8 -17 -13 -9 -5 8 -10
8 -14 2 -9 -15 24 -24 40 -11 8 6 14 18 14 25 0 7 13 23 29 35 17 12 27 28 24
35 -3 8 0 14 6 14 6 0 11 7 11 15 0 23 -16 18 -43 -14z"/>
<path d="M6414 14011 c4 -5 0 -12 -6 -14 -8 -3 -6 -6 5 -6 9 -1 17 6 17 14 0
8 -5 15 -11 15 -5 0 -8 -4 -5 -9z"/>
<path d="M5740 13938 c-33 -38 -39 -58 -11 -33 23 20 45 54 39 60 -2 1 -14
-10 -28 -27z"/>
<path d="M5927 13907 c-26 -28 -50 -47 -55 -43 -4 4 8 21 25 36 39 35 30 48
-11 15 -18 -15 -29 -34 -32 -56 -2 -19 -8 -56 -14 -84 -8 -34 -9 -69 -2 -110
l10 -60 1 53 c0 29 10 80 22 114 16 49 18 63 7 69 -10 7 -9 9 3 9 17 0 69 43
69 57 0 5 9 15 20 23 20 14 27 31 13 29 -5 -1 -29 -24 -56 -52z"/>
<path d="M7846 13924 c-4 -20 -5 -38 -3 -40 3 -3 8 11 11 32 4 20 5 38 3 40
-3 3 -8 -11 -11 -32z"/>
<path d="M5676 13865 c-9 -26 -7 -32 5 -12 6 10 9 21 6 23 -2 3 -7 -2 -11 -11z"/>
<path d="M5406 13823 c-6 -14 -5 -15 5 -6 7 7 10 15 7 18 -3 3 -9 -2 -12 -12z"/>
<path d="M7795 13810 c-4 -12 -5 -24 -2 -27 3 -2 8 5 12 17 4 12 5 24 2 27 -3
2 -8 -5 -12 -17z"/>
<path d="M5702 13790 c-19 -30 -14 -36 8 -10 22 25 24 30 12 30 -4 0 -13 -9
-20 -20z"/>
<path d="M5706 13735 c-10 -15 -12 -25 -6 -25 6 0 9 -4 5 -9 -3 -5 -1 -12 5
-16 6 -3 9 4 9 17 -1 13 2 31 6 41 11 25 0 21 -19 -8z"/>
<path d="M6680 13717 c-38 -19 -32 -43 10 -40 84 6 100 12 78 30 -23 18 -63
22 -88 10z"/>
<path d="M6892 13688 c-16 -16 -15 -28 2 -28 7 0 19 -7 26 -15 19 -23 60 -19
60 4 0 37 -62 65 -88 39z"/>
<path d="M5712 13645 c0 -16 2 -22 5 -12 2 9 2 23 0 30 -3 6 -5 -1 -5 -18z"/>
<path d="M5631 13624 c0 -11 3 -14 6 -6 3 7 2 16 -1 19 -3 4 -6 -2 -5 -13z"/>
<path d="M5629 13589 c-1 -2 -3 -44 -4 -93 -2 -60 2 -97 11 -115 8 -14 14 -34
14 -43 0 -30 20 -31 21 -1 1 15 1 31 0 35 0 4 -3 24 -6 45 -3 21 -10 66 -15
101 -7 55 -16 85 -21 71z"/>
<path d="M7807 13490 c-16 -41 -32 -91 -36 -110 -5 -19 -14 -48 -20 -63 -12
-31 -14 -101 -5 -159 6 -33 8 -35 22 -22 16 17 20 69 8 127 -5 27 -4 37 3 32
6 -3 11 -16 11 -28 1 -12 7 -33 15 -47 l14 -25 2 25 1 25 8 -25 c6 -19 8 -10
9 35 1 33 4 92 6 130 2 39 1 95 -3 125 l-7 55 -28 -75z m-10 -102 c-3 -7 -5
-2 -5 12 0 14 2 19 5 13 2 -7 2 -19 0 -25z m6 -73 c-3 -9 -8 -14 -10 -11 -3 3
-2 9 2 15 9 16 15 13 8 -4z"/>
<path d="M5342 13510 c0 -19 2 -27 5 -17 2 9 2 25 0 35 -3 9 -5 1 -5 -18z"/>
<path d="M5342 13438 c-1 -7 -4 -26 -8 -43 -5 -22 -3 -27 5 -20 14 14 26 75
14 75 -5 0 -10 -6 -11 -12z"/>
<path d="M5712 13415 c0 -16 2 -22 5 -12 2 9 2 23 0 30 -3 6 -5 -1 -5 -18z"/>
<path d="M5435 13390 c-4 -17 -5 -34 -2 -36 3 -3 8 9 12 26 4 17 5 34 2 36 -3
3 -8 -9 -12 -26z"/>
<path d="M6618 13366 c-10 -7 -18 -17 -18 -22 -1 -16 -51 -46 -79 -48 -17 -1
-41 -14 -60 -33 -34 -34 -35 -61 -1 -43 10 5 61 11 114 12 53 2 96 6 96 11 0
4 -4 7 -9 7 -15 0 -21 29 -11 54 4 13 20 26 34 30 31 8 76 -9 76 -29 0 -8 5
-15 10 -15 6 0 10 6 10 14 0 21 37 30 54 14 8 -7 23 -21 34 -30 23 -18 20 -54
-5 -75 -12 -9 -8 -12 19 -18 32 -7 49 -14 131 -49 49 -21 67 -11 33 19 -14 12
-26 27 -26 33 0 6 -9 16 -19 22 -11 5 -41 37 -66 70 -39 50 -50 59 -70 54 -12
-3 -26 -1 -30 5 -3 6 -11 8 -17 5 -6 -4 -17 1 -24 11 -9 12 -19 15 -31 10 -10
-5 -20 -8 -23 -8 -3 1 -27 4 -55 7 -35 4 -55 2 -67 -8z m-8 -91 c0 -8 -7 -15
-15 -15 -9 0 -12 6 -9 15 4 8 10 15 15 15 5 0 9 -7 9 -15z m310 -51 c0 -8 -4
-12 -10 -9 -5 3 -10 10 -10 16 0 5 5 9 10 9 6 0 10 -7 10 -16z"/>
<path d="M5723 13325 c0 -27 2 -38 4 -22 2 15 2 37 0 50 -2 12 -4 0 -4 -28z"/>
<path d="M5862 13320 c-1 -30 5 -89 12 -130 18 -99 18 -42 2 85 -11 83 -14 91
-14 45z"/>
<path d="M5331 13353 c0 -5 4 -17 9 -28 8 -18 9 -17 9 8 1 15 -3 27 -9 27 -5
0 -10 -3 -9 -7z"/>
<path d="M5415 13320 c-4 -12 -5 -24 -2 -27 3 -2 8 5 12 17 4 12 5 24 2 27 -3
2 -8 -5 -12 -17z"/>
<path d="M5630 13288 c0 -34 10 -59 21 -52 14 8 11 38 -6 60 -14 18 -14 18
-15 -8z"/>
<path d="M5701 13254 c0 -11 3 -14 6 -6 3 7 2 16 -1 19 -3 4 -6 -2 -5 -13z"/>
<path d="M6732 13242 c-18 -2 -30 -8 -27 -13 8 -12 75 -12 75 0 0 14 -11 17
-48 13z"/>
<path d="M5080 13220 c-6 -11 -8 -20 -6 -20 3 0 10 9 16 20 6 11 8 20 6 20 -3
0 -10 -9 -16 -20z"/>
<path d="M5307 13186 c-15 -32 -25 -61 -22 -66 3 -4 1 -10 -4 -12 -11 -4 -73
-109 -68 -114 4 -4 95 119 115 156 7 13 12 39 10 58 l-3 34 -28 -56z"/>
<path d="M5730 13136 c0 -40 4 -55 16 -60 13 -5 15 0 10 32 -3 20 -5 47 -6 60
0 12 -4 22 -10 22 -5 0 -10 -24 -10 -54z"/>
<path d="M7833 13110 c0 -47 2 -66 4 -42 2 23 2 61 0 85 -2 23 -4 4 -4 -43z"/>
<path d="M5435 13129 c-4 -5 -4 -26 0 -46 6 -33 7 -34 20 -17 18 24 19 42 1
60 -10 9 -17 11 -21 3z m25 -29 c0 -5 -4 -10 -10 -10 -5 0 -10 5 -10 10 0 6 5
10 10 10 6 0 10 -4 10 -10z"/>
<path d="M6545 13130 c-3 -5 1 -10 10 -10 9 0 13 5 10 10 -3 6 -8 10 -10 10
-2 0 -7 -4 -10 -10z"/>
<path d="M7697 13099 c-3 -23 -2 -51 3 -63 9 -21 9 -21 9 2 1 15 5 21 13 16 8
-5 9 -2 5 10 -4 10 -7 31 -7 47 0 44 -17 35 -23 -12z"/>
<path d="M5340 13115 c0 -8 2 -15 4 -15 2 0 6 7 10 15 3 8 1 15 -4 15 -6 0
-10 -7 -10 -15z"/>
<path d="M5652 13078 c-23 -89 -24 -108 -9 -108 11 0 14 11 12 43 -1 23 1 47
5 52 11 16 19 55 10 55 -4 0 -12 -19 -18 -42z"/>
<path d="M5902 13105 c0 -11 3 -29 8 -40 11 -25 11 1 0 35 -6 20 -8 21 -8 5z"/>
<path d="M5311 13069 c-1 -8 -10 -25 -22 -38 -12 -12 -22 -30 -23 -39 -2 -9
-9 -17 -17 -17 -18 0 -42 -47 -27 -56 6 -4 7 -12 2 -20 -9 -14 -10 -19 -13
-40 0 -5 -5 -7 -11 -4 -5 3 -10 0 -10 -9 0 -8 -3 -21 -6 -30 -4 -10 -1 -16 8
-16 8 0 27 27 43 59 15 33 39 71 53 86 28 31 41 79 31 115 -4 14 -7 18 -8 9z"/>
<path d="M5752 13040 c0 -14 2 -19 5 -12 2 6 2 18 0 25 -3 6 -5 1 -5 -13z"/>
<path d="M5880 13052 c0 -6 5 -14 10 -17 6 -3 10 -19 10 -34 0 -15 9 -54 20
-87 11 -32 30 -88 41 -124 12 -36 25 -75 30 -88 12 -30 11 -52 -1 -52 -5 0
-10 5 -10 10 0 6 -9 20 -20 32 -11 12 -20 20 -20 17 0 -24 30 -153 37 -158 15
-11 43 -60 43 -76 0 -22 18 -18 25 6 5 15 10 17 20 9 9 -7 16 -6 24 3 8 11 3
30 -25 83 -30 59 -32 65 -10 39 14 -16 26 -34 26 -40 0 -5 10 -21 21 -34 17
-21 22 -23 30 -10 7 9 12 10 15 3 3 -7 13 -10 22 -9 66 13 72 16 72 35 0 11 5
20 10 20 6 0 10 7 10 15 0 8 -4 15 -10 15 -5 0 -10 7 -10 15 0 8 -4 15 -8 15
-11 0 -86 65 -126 110 -17 19 -46 50 -63 69 -18 19 -33 38 -33 44 0 15 -45 64
-56 60 -13 -4 -31 32 -39 78 -5 34 -35 76 -35 51z m130 -423 c-7 -11 -9 -27
-6 -34 3 -8 0 -12 -7 -9 -7 2 -13 16 -14 31 0 15 2 21 7 14 5 -10 9 -9 13 3 4
9 9 16 12 16 3 0 1 -9 -5 -21z m31 -87 c12 -31 -5 -28 -20 4 -9 20 -9 25 0 22
7 -2 16 -14 20 -26z"/>
<path d="M7681 13019 c-1 -15 6 -42 14 -60 18 -43 19 -28 1 36 -10 36 -14 42
-15 24z"/>
<path d="M7793 12965 c0 -33 2 -45 4 -27 2 18 2 45 0 60 -2 15 -4 0 -4 -33z"/>
<path d="M7721 12994 c0 -11 3 -14 6 -6 3 7 2 16 -1 19 -3 4 -6 -2 -5 -13z"/>
<path d="M7586 12943 c-3 -28 -4 -71 -2 -95 l5 -43 -9 40 c-5 22 -12 58 -16
80 l-7 40 -7 -35 c-8 -47 -76 -166 -114 -201 -17 -15 -60 -54 -95 -86 -34 -32
-64 -56 -65 -53 -2 5 -72 -22 -118 -46 -14 -8 -34 -14 -44 -14 -29 0 -104 -34
-104 -47 0 -6 -8 -24 -17 -41 -31 -55 8 -78 91 -53 82 24 116 28 127 15 6 -8
17 -14 23 -14 22 0 48 -26 51 -51 2 -13 8 -37 14 -52 6 -16 11 -52 11 -80 0
-37 3 -48 10 -37 14 21 12 1 -4 -53 -8 -26 -10 -47 -5 -47 5 0 9 9 9 19 0 11
5 23 10 26 12 8 13 -19 1 -65 -14 -52 -20 -130 -10 -124 5 3 7 -1 5 -8 -2 -7
-7 -35 -10 -62 l-6 -49 21 19 c12 10 24 17 27 14 3 -3 6 2 8 10 5 24 12 55 14
60 5 12 -3 66 -10 75 -4 6 -4 19 1 30 4 11 8 36 9 55 2 35 2 35 13 10 7 -14
18 -25 26 -25 8 0 19 -15 23 -32 5 -18 10 -33 12 -33 2 0 3 22 2 50 -1 27 -4
50 -7 50 -21 0 -11 289 11 350 9 25 15 51 12 59 -3 8 0 11 7 7 12 -8 9 -30
-16 -108 -22 -71 -11 -94 16 -33 41 92 51 110 77 140 24 29 25 29 18 5 -6 -22
-5 -23 9 -11 9 7 15 22 14 33 -1 12 5 23 13 25 13 4 13 3 1 -5 -12 -9 -12 -13
-2 -26 7 -9 11 -25 8 -36 -3 -11 -1 -18 4 -14 14 8 11 -40 -3 -54 -9 -9 -5
-12 19 -12 29 0 31 -2 37 -52 4 -29 15 -71 26 -93 10 -22 23 -51 28 -65 10
-24 11 -23 11 13 1 23 -3 36 -9 32 -12 -7 -12 -4 -10 95 1 41 6 80 12 87 5 7
8 18 6 24 -2 7 -10 -2 -17 -19 -15 -35 -46 -55 -36 -22 4 12 -3 38 -19 67 -33
64 -46 135 -36 203 8 56 1 133 -23 250 l-14 65 -7 -52z m32 -238 c-3 -3 -9 2
-12 12 -6 14 -5 15 5 6 7 -7 10 -15 7 -18z m-100 -170 c-6 -14 -13 -23 -15
-21 -5 5 15 46 22 46 3 0 -1 -11 -7 -25z m142 -86 c0 -16 -4 -28 -9 -25 -5 3
-8 17 -8 31 0 14 3 25 8 25 5 0 9 -14 9 -31z m-217 -14 c-3 -9 -8 -14 -10 -11
-3 3 -2 9 2 15 9 16 15 13 8 -4z m-32 -108 c-32 -98 -43 -121 -35 -77 8 51 46
161 52 155 4 -3 -4 -38 -17 -78z m-47 -161 c-3 -21 -9 -35 -11 -32 -3 3 -2 21
1 42 4 20 10 34 12 31 3 -3 2 -21 -2 -41z m-18 -213 c-10 -10 -19 5 -10 18 6
11 8 11 12 0 2 -7 1 -15 -2 -18z"/>
<path d="M5072 12941 c-17 -46 -15 -60 4 -33 8 12 14 32 12 45 -3 19 -5 17
-16 -12z"/>
<path d="M5946 12961 c-4 -7 -5 -15 -2 -18 9 -9 19 4 14 18 -4 11 -6 11 -12 0z"/>
<path d="M5275 12894 c-15 -30 -25 -57 -21 -61 3 -3 6 -1 6 5 0 6 10 23 23 39
28 33 39 60 28 67 -4 3 -21 -19 -36 -50z"/>
<path d="M7712 12900 c0 -14 2 -19 5 -12 2 6 2 18 0 25 -3 6 -5 1 -5 -13z"/>
<path d="M7842 12900 c0 -14 2 -19 5 -12 2 6 2 18 0 25 -3 6 -5 1 -5 -13z"/>
<path d="M5187 12903 c-4 -3 -7 -11 -7 -17 0 -6 5 -5 12 2 6 6 9 14 7 17 -3 3
-9 2 -12 -2z"/>
<path d="M5621 12894 c0 -11 3 -14 6 -6 3 7 2 16 -1 19 -3 4 -6 -2 -5 -13z"/>
<path d="M5162 12841 c-7 -19 -10 -36 -8 -38 8 -8 27 38 24 55 -3 11 -8 5 -16
-17z"/>
<path d="M5781 12798 c-18 -60 -29 -128 -20 -123 4 3 10 -11 13 -30 7 -36 26
-49 26 -17 0 10 7 27 15 38 8 10 15 28 15 39 0 17 2 17 10 5 8 -13 10 -13 10
2 0 9 -4 19 -9 22 -5 3 -14 28 -21 56 -7 27 -15 50 -19 50 -4 0 -13 -19 -20
-42z m26 -60 c-3 -8 -6 -5 -6 6 -1 11 2 17 5 13 3 -3 4 -12 1 -19z m-10 -40
c-3 -8 -6 -5 -6 6 -1 11 2 17 5 13 3 -3 4 -12 1 -19z"/>
<path d="M5523 12731 c-25 -73 -31 -121 -12 -88 6 10 8 21 5 24 -3 3 1 15 9
27 8 11 15 30 15 41 0 12 4 25 10 31 5 5 6 14 2 21 -4 6 -17 -18 -29 -56z"/>
<path d="M5176 12774 c-9 -23 -7 -52 3 -58 4 -3 6 5 4 18 -3 13 0 27 6 30 13
9 15 26 2 26 -5 0 -12 -7 -15 -16z"/>
<path d="M5560 12729 c-6 -11 -9 -30 -7 -42 4 -19 4 -18 6 5 0 15 8 34 17 42
8 9 11 16 5 16 -6 0 -15 -9 -21 -21z"/>
<path d="M5580 12693 c0 -22 2 -25 10 -13 13 20 13 40 0 40 -5 0 -10 -12 -10
-27z"/>
<path d="M5161 12684 c0 -11 3 -14 6 -6 3 7 2 16 -1 19 -3 4 -6 -2 -5 -13z"/>
<path d="M5120 12676 c0 -7 -2 -29 -6 -47 l-5 -34 15 34 c18 38 20 61 6 61 -5
0 -10 -6 -10 -14z"/>
<path d="M7674 12599 c2 -48 8 -95 14 -105 5 -11 7 -25 5 -31 -8 -21 5 -15 18
8 6 12 7 24 2 28 -17 12 -31 58 -22 72 12 20 10 49 -6 84 -14 28 -14 25 -11
-56z"/>
<path d="M7867 12657 c-11 -29 -9 -53 4 -40 6 6 9 21 7 34 -3 21 -4 22 -11 6z"/>
<path d="M5870 12644 c0 -8 5 -12 10 -9 6 4 8 11 5 16 -9 14 -15 11 -15 -7z"/>
<path d="M5520 12615 c0 -8 5 -15 10 -15 6 0 10 7 10 15 0 8 -4 15 -10 15 -5
0 -10 -7 -10 -15z"/>
<path d="M5892 12600 c0 -14 2 -19 5 -12 2 6 2 18 0 25 -3 6 -5 1 -5 -13z"/>
<path d="M5761 12584 c0 -11 3 -14 6 -6 3 7 2 16 -1 19 -3 4 -6 -2 -5 -13z"/>
<path d="M7710 12561 c-13 -25 -13 -28 3 -34 10 -4 14 4 14 24 0 34 -3 36 -17
10z"/>
<path d="M7790 12570 c0 -5 5 -10 11 -10 5 0 7 5 4 10 -3 6 -8 10 -11 10 -2 0
-4 -4 -4 -10z"/>
<path d="M5111 12554 c0 -11 3 -14 6 -6 3 7 2 16 -1 19 -3 4 -6 -2 -5 -13z"/>
<path d="M5896 12509 c-29 -68 -31 -80 -13 -97 6 -7 13 -25 13 -40 3 -56 16
-137 24 -142 8 -6 19 -48 27 -105 3 -22 9 -42 14 -45 4 -3 4 -31 0 -63 -4 -31
-7 -65 -6 -75 10 -100 19 -203 20 -227 3 -94 6 -116 13 -111 5 3 5 -19 -1 -49
-7 -43 -6 -57 5 -69 21 -20 52 -23 71 -8 14 12 15 16 2 36 -9 13 -15 38 -14
57 0 19 -10 84 -22 144 -12 61 -23 139 -25 175 -4 100 -4 100 -17 100 -7 0 -6
4 3 10 10 7 12 12 4 18 -20 13 -24 234 -4 240 5 2 7 8 4 14 -3 5 1 28 10 51
13 36 13 50 3 96 -14 64 -32 76 -46 29 l-9 -33 -1 33 c-1 24 -5 31 -13 26 -10
-6 -10 -5 -1 7 9 11 10 25 2 52 -5 20 -11 37 -13 37 -2 0 -15 -27 -30 -61z
m91 -621 c-3 -8 -6 -5 -6 6 -1 11 2 17 5 13 3 -3 4 -12 1 -19z m7 -204 c3 -8
2 -12 -4 -9 -6 3 -10 10 -10 16 0 14 7 11 14 -7z"/>
<path d="M7874 12556 c-3 -8 -4 -23 -2 -33 3 -11 6 -6 9 15 6 34 2 42 -7 18z"/>
<path d="M7780 12526 c0 -14 5 -28 10 -31 6 -4 10 7 10 24 0 17 -4 31 -10 31
-5 0 -10 -11 -10 -24z"/>
<path d="M5855 12520 c-3 -5 -1 -10 4 -10 6 0 11 5 11 10 0 6 -2 10 -4 10 -3
0 -8 -4 -11 -10z"/>
<path d="M5104 12503 c2 -12 -1 -24 -8 -26 -6 -2 -8 -7 -5 -11 12 -13 27 19
18 39 -9 19 -9 19 -5 -2z"/>
<path d="M5013 12464 c-7 -7 -13 -21 -13 -31 0 -12 5 -9 15 11 17 33 16 41 -2
20z"/>
<path d="M5778 12447 c-12 -29 -10 -73 3 -60 6 6 9 26 7 44 -2 26 -5 30 -10
16z"/>
<path d="M7531 12424 c-17 -38 -6 -42 14 -5 8 17 12 31 7 31 -5 0 -14 -12 -21
-26z"/>
<path d="M7872 12425 c0 -16 2 -22 5 -12 2 9 2 23 0 30 -3 6 -5 -1 -5 -18z"/>
<path d="M5094 12427 c-9 -24 6 -44 18 -22 7 11 6 21 -1 28 -7 7 -12 6 -17 -6z"/>
<path d="M6946 12421 c-4 -7 -5 -15 -2 -18 9 -9 19 4 14 18 -4 11 -6 11 -12 0z"/>
<path d="M7581 12394 c0 -11 3 -14 6 -6 3 7 2 16 -1 19 -3 4 -6 -2 -5 -13z"/>
<path d="M5070 12374 c0 -8 5 -12 10 -9 6 4 8 11 5 16 -9 14 -15 11 -15 -7z"/>
<path d="M7627 12383 c-4 -3 -2 -12 3 -18 7 -9 6 -16 -4 -24 -15 -13 -9 -43
22 -108 8 -18 12 -41 9 -52 -3 -12 -1 -21 4 -21 4 0 14 -19 21 -42 l13 -43 3
64 c2 44 -3 84 -17 129 -12 36 -21 78 -21 94 0 26 -17 37 -33 21z"/>
<path d="M7489 12334 c-11 -27 -23 -67 -25 -89 l-5 -40 16 40 c45 111 57 187
14 89z"/>
<path d="M5468 12340 c-11 -38 -10 -56 3 -43 6 6 9 23 7 39 l-3 29 -7 -25z"/>
<path d="M5067 12326 c-4 -10 -1 -13 8 -9 8 3 12 9 9 14 -7 12 -11 11 -17 -5z"/>
<path d="M5201 12308 c1 -7 5 -24 9 -38 8 -24 8 -24 9 7 1 17 -3 35 -9 38 -5
3 -10 0 -9 -7z"/>
<path d="M5860 12313 c0 -5 5 -25 11 -44 6 -19 13 -40 15 -48 3 -8 7 -11 10
-8 6 6 -16 88 -28 102 -5 5 -8 5 -8 -2z"/>
<path d="M5041 12284 c0 -11 3 -14 6 -6 3 7 2 16 -1 19 -3 4 -6 -2 -5 -13z"/>
<path d="M5141 12268 c0 -28 2 -30 9 -13 12 28 12 45 0 45 -5 0 -10 -15 -9
-32z"/>
<path d="M7480 12220 c-7 -25 -12 -57 -12 -71 1 -40 21 -109 32 -109 12 0 12
6 1 50 -5 19 -12 49 -15 65 -6 29 -5 28 13 -7 10 -20 21 -67 25 -105 3 -37 10
-84 14 -103 l9 -35 7 31 c4 17 4 46 1 65 -20 119 -28 155 -36 165 -5 7 -13 31
-18 55 l-8 44 -13 -45z"/>
<path d="M7518 12248 c-2 -7 -1 -26 3 -43 6 -28 7 -26 8 13 1 42 -3 53 -11 30z"/>
<path d="M5245 12171 c-3 -5 -1 -12 5 -16 5 -3 10 1 10 9 0 18 -6 21 -15 7z"/>
<path d="M7736 12145 c4 -8 8 -15 10 -15 2 0 4 7 4 15 0 8 -4 15 -10 15 -5 0
-7 -7 -4 -15z"/>
<path d="M5281 12124 c0 -11 3 -14 6 -6 3 7 2 16 -1 19 -3 4 -6 -2 -5 -13z"/>
<path d="M5621 12064 c0 -11 3 -14 6 -6 3 7 2 16 -1 19 -3 4 -6 -2 -5 -13z"/>
<path d="M5703 12035 c0 -22 2 -30 4 -17 2 12 2 30 0 40 -3 9 -5 -1 -4 -23z"/>
<path d="M5797 11995 c3 -22 7 -42 9 -44 8 -9 2 45 -6 64 -7 14 -8 8 -3 -20z"/>
<path d="M7501 11974 c0 -11 3 -14 6 -6 3 7 2 16 -1 19 -3 4 -6 -2 -5 -13z"/>
<path d="M7462 11920 c0 -14 2 -19 5 -12 2 6 2 18 0 25 -3 6 -5 1 -5 -13z"/>
<path d="M7290 11888 c0 -19 2 -20 10 -8 13 19 13 30 0 30 -5 0 -10 -10 -10
-22z"/>
<path d="M7427 11813 c-29 -100 -31 -117 -17 -108 8 5 11 3 9 -4 -3 -7 -9 -12
-14 -11 -9 1 -47 -101 -40 -108 9 -9 25 11 26 31 1 18 2 19 6 4 4 -16 7 -15
20 10 41 78 57 168 28 157 -15 -6 -21 7 -8 19 6 7 15 67 10 67 -2 0 -11 -26
-20 -57z m13 -77 c0 -3 -4 -8 -10 -11 -5 -3 -10 -1 -10 4 0 6 5 11 10 11 6 0
10 -2 10 -4z"/>
<path d="M8100 11863 c0 -5 5 -15 10 -23 8 -12 10 -11 10 8 0 12 -4 22 -10 22
-5 0 -10 -3 -10 -7z"/>
<path d="M7380 11841 c0 -11 -4 -22 -9 -25 -11 -7 -2 -55 13 -63 6 -3 8 -3 4
1 -3 4 -1 24 6 44 13 38 11 62 -5 62 -5 0 -9 -9 -9 -19z"/>
<path d="M5907 11785 c-5 -16 -10 -63 -12 -105 -4 -74 -4 -74 11 -42 10 23 14
58 12 105 -2 59 -5 66 -11 42z"/>
<path d="M8101 11774 c0 -11 3 -14 6 -6 3 7 2 16 -1 19 -3 4 -6 -2 -5 -13z"/>
<path d="M7312 11747 c-15 -34 -15 -40 -2 -32 6 3 10 -4 10 -17 0 -16 -3 -19
-9 -10 -6 10 -10 8 -14 -10 -11 -38 -8 -42 13 -23 32 29 36 8 4 -22 -16 -15
-30 -40 -32 -55 -3 -27 -2 -27 28 -12 16 9 30 22 30 30 0 8 5 14 11 14 6 0 9
6 6 13 -2 6 2 26 10 44 16 40 18 65 2 43 -8 -12 -9 -9 -5 12 4 16 1 30 -6 34
-8 5 -9 -5 -5 -39 5 -38 4 -45 -8 -41 -8 4 -15 24 -17 52 -3 47 -4 47 -16 19z
m8 -147 c0 -5 -2 -10 -4 -10 -3 0 -8 5 -11 10 -3 6 -1 10 4 10 6 0 11 -4 11
-10z"/>
<path d="M5397 11753 c-4 -3 -7 -13 -7 -22 1 -13 3 -13 11 2 11 19 8 33 -4 20z"/>
<path d="M5940 11712 c0 -10 -9 -51 -19 -91 -21 -81 -16 -114 17 -116 23 -2
37 31 25 62 -6 14 -9 11 -14 -17 -4 -19 -4 13 -1 73 2 59 2 107 -2 107 -3 0
-6 -8 -6 -18z"/>
<path d="M5636 11685 c-11 -8 -15 -15 -9 -15 6 0 16 7 23 15 16 19 11 19 -14
0z"/>
<path d="M5711 11664 c0 -11 3 -14 6 -6 3 7 2 16 -1 19 -3 4 -6 -2 -5 -13z"/>
<path d="M5277 11653 c-4 -3 -7 -13 -7 -22 1 -13 3 -13 11 2 11 19 8 33 -4 20z"/>
<path d="M5590 11635 c-24 -25 -35 -55 -21 -55 4 0 17 17 30 38 17 28 21 31
16 12 -5 -19 -4 -22 4 -10 10 13 12 13 21 0 6 -9 10 -10 10 -3 0 10 -26 43
-34 43 -1 0 -13 -11 -26 -25z"/>
<path d="M5681 11604 c0 -11 3 -14 6 -6 3 7 2 16 -1 19 -3 4 -6 -2 -5 -13z"/>
<path d="M5285 11580 c-17 -33 -20 -60 -5 -60 6 0 10 12 10 26 0 14 5 34 10
45 6 10 8 19 6 19 -3 0 -12 -13 -21 -30z"/>
<path d="M5600 11574 c-15 -38 -12 -40 15 -10 29 31 30 36 10 36 -9 0 -20 -12
-25 -26z"/>
<path d="M5841 11590 c0 -8 4 -24 9 -35 5 -13 9 -14 9 -5 0 8 -4 24 -9 35 -5
13 -9 14 -9 5z"/>
<path d="M5781 11545 c-1 -11 -4 -44 -7 -72 -5 -37 -3 -53 5 -53 7 0 9 9 5 26
-4 14 -1 36 6 50 10 18 10 29 2 46 -10 21 -11 22 -11 3z"/>
<path d="M8120 11513 c0 -24 39 -103 51 -103 13 0 20 18 10 25 -6 3 -8 12 -5
19 3 7 -9 29 -25 47 -28 30 -31 31 -31 12z"/>
<path d="M5152 11460 c-1 -14 3 -43 7 -65 l9 -40 0 40 c0 22 -4 51 -8 65 l-8
25 0 -25z"/>
<path d="M6065 11460 c3 -5 8 -10 11 -10 2 0 4 5 4 10 0 6 -5 10 -11 10 -5 0
-7 -4 -4 -10z"/>
<path d="M5462 11411 c-7 -19 -12 -48 -11 -65 0 -25 3 -21 15 23 17 62 13 93
-4 42z"/>
<path d="M8130 11396 c0 -9 5 -16 10 -16 6 0 10 4 10 9 0 6 -4 13 -10 16 -5 3
-10 -1 -10 -9z"/>
<path d="M6005 11380 c-4 -6 5 -10 20 -10 15 0 24 4 20 10 -3 6 -12 10 -20 10
-8 0 -17 -4 -20 -10z"/>
<path d="M8156 11374 c-5 -14 -4 -15 9 -4 17 14 19 20 6 20 -5 0 -12 -7 -15
-16z"/>
<path d="M7942 11330 c0 -19 2 -27 5 -17 2 9 2 25 0 35 -3 9 -5 1 -5 -18z"/>
<path d="M5162 11325 c0 -16 2 -22 5 -12 2 9 2 23 0 30 -3 6 -5 -1 -5 -18z"/>
<path d="M5582 11309 c-7 -11 -11 -24 -8 -27 10 -9 28 15 24 32 -2 14 -5 13
-16 -5z"/>
<path d="M5370 11288 c0 -19 2 -20 10 -8 13 19 13 30 0 30 -5 0 -10 -10 -10
-22z"/>
<path d="M5547 11246 c-22 -33 -32 -76 -18 -76 6 0 11 7 11 16 0 8 4 13 9 10
8 -5 31 43 31 65 0 17 -18 9 -33 -15z"/>
<path d="M8610 11265 c-8 -2 -50 -9 -93 -16 -43 -6 -80 -16 -83 -20 -8 -13 19
-10 146 16 63 12 99 23 80 23 -19 0 -42 -2 -50 -3z"/>
<path d="M8730 11260 c8 -5 20 -10 25 -10 6 0 3 5 -5 10 -8 5 -19 10 -25 10
-5 0 -3 -5 5 -10z"/>
<path d="M5431 11244 c0 -11 3 -14 6 -6 3 7 2 16 -1 19 -3 4 -6 -2 -5 -13z"/>
<path d="M5992 11240 c7 -11 16 -20 20 -20 5 0 3 9 -4 20 -7 11 -16 20 -20 20
-5 0 -3 -9 4 -20z"/>
<path d="M8781 11246 c2 -2 15 -9 29 -15 24 -11 24 -11 6 3 -16 13 -49 24 -35
12z"/>
<path d="M7672 11220 c0 -14 2 -19 5 -12 2 6 2 18 0 25 -3 6 -5 1 -5 -13z"/>
<path d="M8385 11220 c3 -5 8 -10 11 -10 2 0 4 5 4 10 0 6 -5 10 -11 10 -5 0
-7 -4 -4 -10z"/>
<path d="M8336 11205 c-4 -11 1 -15 19 -15 28 0 33 15 9 24 -21 8 -21 8 -28
-9z"/>
<path d="M8170 11163 c0 -38 12 -41 40 -13 11 11 23 20 26 19 3 0 9 3 12 7 4
4 1 4 -5 0 -8 -4 -13 -2 -13 7 0 9 -10 14 -30 13 -27 -1 -30 -4 -30 -33z m35
-3 c-3 -5 -11 -10 -16 -10 -6 0 -7 5 -4 10 3 6 11 10 16 10 6 0 7 -4 4 -10z"/>
<path d="M8890 11190 c8 -5 22 -9 30 -9 10 0 8 3 -5 9 -27 12 -43 12 -25 0z"/>
<path d="M5571 11178 c0 -10 -5 -18 -11 -18 -5 0 -10 -9 -10 -20 0 -11 -4 -20
-9 -20 -5 0 -11 -6 -14 -12 -2 -7 -3 -6 -2 3 1 9 -1 23 -6 30 -15 24 -10 -36
6 -72 11 -27 14 -30 15 -12 0 25 20 75 33 84 5 4 7 17 4 30 -2 14 -5 17 -6 7z"/>
<path d="M4996 11154 c-4 -14 -5 -28 -3 -31 3 -2 8 8 11 23 4 14 5 28 3 31 -3
2 -8 -8 -11 -23z"/>
<path d="M7673 11135 c0 -22 2 -30 4 -17 2 12 2 30 0 40 -3 9 -5 -1 -4 -23z"/>
<path d="M7511 11109 c-7 -25 -12 -52 -10 -60 1 -8 0 -21 -4 -29 -12 -32 -15
-60 -6 -60 5 0 9 7 9 15 0 8 5 15 11 15 5 0 7 4 4 10 -3 5 1 24 9 42 10 23 12
46 8 73 l-8 40 -13 -46z"/>
<path d="M5576 11116 c3 -8 -2 -26 -12 -41 -14 -21 -15 -28 -4 -35 7 -4 9 -13
5 -21 -5 -10 -5 -11 2 -4 16 15 26 102 14 110 -6 3 -8 0 -5 -9z"/>
<path d="M5621 11104 c0 -11 3 -14 6 -6 3 7 2 16 -1 19 -3 4 -6 -2 -5 -13z"/>
<path d="M5920 11113 c0 -5 5 -15 10 -23 8 -12 10 -11 10 8 0 12 -4 22 -10 22
-5 0 -10 -3 -10 -7z"/>
<path d="M5950 11101 c0 -6 5 -13 10 -16 6 -4 8 -11 5 -16 -4 -5 -1 -9 4 -9 6
0 11 5 11 10 0 6 5 10 11 10 5 0 8 -4 5 -9 -3 -5 3 -11 14 -14 16 -4 20 0 20
18 0 17 -7 24 -31 29 -42 8 -49 8 -49 -3z"/>
<path d="M4810 11089 c0 -5 5 -7 10 -4 6 3 10 8 10 11 0 2 -4 4 -10 4 -5 0
-10 -5 -10 -11z"/>
<path d="M4863 11084 c-7 -7 -13 -20 -13 -29 0 -15 1 -15 16 -1 8 9 14 22 12
30 -2 12 -5 12 -15 0z"/>
<path d="M4969 11088 c-1 -7 -3 -23 -4 -35 -1 -12 1 -21 5 -18 7 5 12 65 4 65
-2 0 -5 -6 -5 -12z"/>
<path d="M6770 11090 c0 -5 5 -10 11 -10 5 0 7 5 4 10 -3 6 -8 10 -11 10 -2 0
-4 -4 -4 -10z"/>
<path d="M6120 11081 c0 -6 5 -13 10 -16 6 -3 10 -15 10 -26 0 -16 2 -18 14
-7 10 9 11 15 2 20 -18 12 4 9 84 -11 41 -11 124 -45 184 -76 60 -30 111 -54
113 -51 7 7 -109 81 -182 116 -33 17 -96 37 -140 45 -94 18 -95 18 -95 6z"/>
<path d="M7179 11078 c-27 -10 -149 -31 -176 -31 -13 1 -23 -5 -23 -11 0 -10
19 -10 88 1 48 7 114 17 146 21 69 8 90 32 26 29 -22 -1 -50 -5 -61 -9z"/>
<path d="M4761 11054 c0 -11 3 -14 6 -6 3 7 2 16 -1 19 -3 4 -6 -2 -5 -13z"/>
<path d="M4807 11059 c-14 -8 -15 -14 -5 -32 11 -22 12 -22 19 7 10 36 9 37
-14 25z"/>
<path d="M5600 11031 c0 -31 4 -41 16 -41 12 0 14 3 6 13 -6 7 -9 22 -6 34 3
11 1 24 -5 27 -7 5 -11 -7 -11 -33z"/>
<path d="M6810 11061 c0 -11 31 -37 53 -44 12 -5 17 -1 17 13 0 11 -1 20 -3
20 -1 0 -17 4 -35 9 -17 5 -32 6 -32 2z"/>
<path d="M5374 11039 c-3 -6 1 -18 10 -27 15 -15 16 -15 16 1 0 9 -5 17 -11
17 -5 0 -7 5 -4 10 3 6 4 10 1 10 -3 0 -8 -5 -12 -11z"/>
<path d="M5517 11023 c-4 -3 -7 -13 -7 -22 1 -13 3 -13 11 2 11 19 8 33 -4 20z"/>
<path d="M4945 10965 c-11 -19 -15 -38 -11 -42 9 -9 39 31 43 58 5 30 -12 22
-32 -16z"/>
<path d="M4845 10970 c-16 -17 -16 -20 -3 -15 9 4 19 13 22 21 7 19 2 18 -19
-6z"/>
<path d="M5890 10976 c0 -9 5 -16 10 -16 6 0 10 4 10 9 0 6 -4 13 -10 16 -5 3
-10 -1 -10 -9z"/>
<path d="M5015 10966 c-11 -7 -15 -18 -10 -25 5 -9 11 -7 22 9 19 26 13 34
-12 16z"/>
<path d="M5480 10970 c0 -5 5 -10 11 -10 5 0 7 5 4 10 -3 6 -8 10 -11 10 -2 0
-4 -4 -4 -10z"/>
<path d="M5920 10970 c0 -5 5 -10 11 -10 5 0 7 5 4 10 -3 6 -8 10 -11 10 -2 0
-4 -4 -4 -10z"/>
<path d="M5990 10950 c20 -13 47 -13 55 0 4 6 -9 10 -32 10 -28 0 -34 -3 -23
-10z"/>
<path d="M7787 10938 c-9 -31 -2 -33 11 -3 6 14 8 25 3 25 -5 0 -11 -10 -14
-22z"/>
<path d="M5486 10938 c-13 -42 -13 -56 0 -51 8 3 14 0 14 -6 0 -6 4 -11 8 -11
11 0 2 69 -9 76 -5 3 -11 -1 -13 -8z"/>
<path d="M5571 10934 c0 -11 3 -14 6 -6 3 7 2 16 -1 19 -3 4 -6 -2 -5 -13z"/>
<path d="M6140 10942 c0 -4 60 -20 133 -35 133 -27 289 -35 362 -18 17 4 -35
8 -115 7 -123 0 -163 4 -259 27 -130 31 -121 29 -121 19z"/>
<path d="M7501 10934 c0 -11 3 -14 6 -6 3 7 2 16 -1 19 -3 4 -6 -2 -5 -13z"/>
<path d="M5600 10925 c0 -8 2 -15 4 -15 2 0 6 7 10 15 3 8 1 15 -4 15 -6 0
-10 -7 -10 -15z"/>
<path d="M6780 10930 l-25 -8 25 0 c14 0 36 4 50 8 l25 8 -25 0 c-14 0 -36 -4
-50 -8z"/>
<path d="M7846 10923 c-3 -10 -9 -24 -12 -30 -3 -7 -1 -13 4 -13 5 0 13 12 16
26 8 30 2 44 -8 17z"/>
<path d="M4831 10874 c-18 -49 -10 -51 11 -3 9 21 13 39 9 39 -4 0 -13 -16
-20 -36z"/>
<path d="M5337 10903 c-4 -3 -7 -11 -7 -17 0 -6 5 -5 12 2 6 6 9 14 7 17 -3 3
-9 2 -12 -2z"/>
<path d="M5572 10880 c0 -14 2 -19 5 -12 2 6 2 18 0 25 -3 6 -5 1 -5 -13z"/>
<path d="M5272 10865 c0 -16 2 -22 5 -12 2 9 2 23 0 30 -3 6 -5 -1 -5 -18z"/>
<path d="M4987 10873 c-4 -3 -7 -13 -7 -22 1 -13 3 -13 11 2 11 19 8 33 -4 20z"/>
<path d="M7760 10820 c0 -29 4 -40 15 -40 15 0 16 24 2 48 -5 8 -2 12 8 12 9
0 13 5 10 10 -3 6 -13 10 -21 10 -10 0 -14 -12 -14 -40z"/>
<path d="M5490 10825 c0 -14 5 -25 10 -25 6 0 10 11 10 25 0 14 -4 25 -10 25
-5 0 -10 -11 -10 -25z"/>
<path d="M5010 10840 c-1 -3 -3 -18 -5 -35 -3 -24 -2 -27 6 -12 6 10 8 25 6
35 -3 9 -6 15 -7 12z"/>
<path d="M5315 10829 c-10 -16 5 -140 16 -134 13 9 11 65 -2 65 -7 0 -8 14 -4
40 7 39 3 50 -10 29z"/>
<path d="M7442 10820 c0 -14 2 -19 5 -12 2 6 2 18 0 25 -3 6 -5 1 -5 -13z"/>
<path d="M4970 10815 c0 -11 -7 -29 -16 -40 -13 -17 -16 -18 -25 -5 -7 11 -8
8 -3 -12 4 -18 2 -28 -5 -28 -6 0 -10 -16 -10 -37 l2 -38 6 33 c3 18 9 33 14
32 10 -1 36 24 31 31 -1 3 4 18 12 34 10 19 11 32 4 39 -7 7 -10 4 -10 -9z"/>
<path d="M7421 10794 c-1 -5 6 -19 14 -30 14 -18 14 -18 15 4 0 13 -4 21 -9
18 -5 -4 -12 0 -14 6 -3 7 -6 8 -6 2z"/>
<path d="M5392 10730 c0 -19 2 -27 5 -17 2 9 2 25 0 35 -3 9 -5 1 -5 -18z"/>
<path d="M7408 10733 c5 -21 7 -23 10 -9 2 10 0 22 -6 28 -6 6 -7 0 -4 -19z"/>
<path d="M7760 10750 c0 -5 5 -10 10 -10 6 0 10 5 10 10 0 6 -4 10 -10 10 -5
0 -10 -4 -10 -10z"/>
<path d="M4986 10725 c-9 -26 -7 -32 5 -12 6 10 9 21 6 23 -2 3 -7 -2 -11 -11z"/>
<path d="M7456 10713 c6 -4 14 -15 17 -23 5 -11 6 -9 4 4 -1 11 -9 21 -17 23
-10 3 -11 2 -4 -4z"/>
<path d="M7826 10681 c-4 -7 -5 -15 -2 -18 9 -9 19 4 14 18 -4 11 -6 11 -12 0z"/>
<path d="M4958 10643 c5 -21 7 -23 10 -9 2 10 0 22 -6 28 -6 6 -7 0 -4 -19z"/>
<path d="M5162 10640 c0 -14 2 -19 5 -12 2 6 2 18 0 25 -3 6 -5 1 -5 -13z"/>
<path d="M5280 10639 c0 -11 4 -18 10 -14 5 3 7 12 3 20 -7 21 -13 19 -13 -6z"/>
<path d="M7493 10604 c-2 -35 -1 -36 13 -16 8 11 11 27 8 36 -10 27 -19 18
-21 -20z"/>
<path d="M7471 10614 c0 -11 3 -14 6 -6 3 7 2 16 -1 19 -3 4 -6 -2 -5 -13z"/>
<path d="M4980 10604 c0 -8 5 -12 10 -9 6 3 10 10 10 16 0 5 -4 9 -10 9 -5 0
-10 -7 -10 -16z"/>
<path d="M5300 10599 c0 -5 5 -7 10 -4 6 3 10 8 10 11 0 2 -4 4 -10 4 -5 0
-10 -5 -10 -11z"/>
<path d="M5182 10555 c0 -16 2 -22 5 -12 2 9 2 23 0 30 -3 6 -5 -1 -5 -18z"/>
<path d="M7871 10564 c0 -11 3 -14 6 -6 3 7 2 16 -1 19 -3 4 -6 -2 -5 -13z"/>
<path d="M7852 10540 c0 -14 2 -19 5 -12 2 6 2 18 0 25 -3 6 -5 1 -5 -13z"/>
<path d="M5112 10505 c0 -16 2 -22 5 -12 2 9 2 23 0 30 -3 6 -5 -1 -5 -18z"/>
<path d="M4276 10163 c-6 -14 -5 -15 5 -6 7 7 10 15 7 18 -3 3 -9 -2 -12 -12z"/>
<path d="M4243 9880 c0 -25 2 -35 4 -22 2 12 2 32 0 45 -2 12 -4 2 -4 -23z"/>
<path d="M4231 9774 c0 -11 3 -14 6 -6 3 7 2 16 -1 19 -3 4 -6 -2 -5 -13z"/>
<path d="M6770 9686 c0 -2 7 -9 15 -16 9 -7 15 -8 15 -2 0 5 -7 12 -15 16 -8
3 -15 4 -15 2z"/>
<path d="M4211 9664 c0 -11 3 -14 6 -6 3 7 2 16 -1 19 -3 4 -6 -2 -5 -13z"/>
<path d="M4197 9563 c-2 -21 -1 -45 4 -53 5 -10 9 4 9 38 0 61 -6 68 -13 15z"/>
<path d="M4187 9453 c-4 -21 -2 -42 3 -47 7 -7 10 7 10 37 0 57 -5 60 -13 10z"/>
<path d="M6884 9400 c-6 -35 -6 -59 -1 -57 8 2 22 117 14 117 -2 0 -8 -27 -13
-60z"/>
<path d="M6046 9406 c4 -31 24 -55 61 -75 30 -16 33 -14 32 17 0 15 -3 22 -5
15 -9 -22 -75 22 -86 57 -3 8 -4 2 -2 -14z"/>
<path d="M6212 9335 c0 -16 2 -22 5 -12 2 9 2 23 0 30 -3 6 -5 -1 -5 -18z"/>
<path d="M6741 9324 c0 -11 3 -14 6 -6 3 7 2 16 -1 19 -3 4 -6 -2 -5 -13z"/>
<path d="M6850 9320 c0 -5 5 -10 10 -10 6 0 10 5 10 10 0 6 -4 10 -10 10 -5 0
-10 -4 -10 -10z"/>
<path d="M6980 9320 c-8 -5 -12 -11 -9 -14 7 -8 49 5 49 15 0 12 -21 11 -40
-1z"/>
<path d="M6750 9270 c0 -5 7 -10 15 -10 8 0 15 5 15 10 0 6 -7 10 -15 10 -8 0
-15 -4 -15 -10z"/>
<path d="M4162 9175 c0 -16 2 -22 5 -12 2 9 2 23 0 30 -3 6 -5 -1 -5 -18z"/>
<path d="M6125 9181 c-3 -5 -1 -12 5 -16 5 -3 10 1 10 9 0 18 -6 21 -15 7z"/>
<path d="M6096 9143 c-13 -13 -5 -21 19 -19 14 0 25 2 25 3 0 7 -38 21 -44 16z"/>
<path d="M3950 9096 c0 -2 8 -10 18 -17 15 -13 16 -12 3 4 -13 16 -21 21 -21
13z"/>
<path d="M4021 9031 c13 -11 26 -17 28 -15 5 5 -30 33 -43 34 -4 0 2 -9 15
-19z"/>
<path d="M9173 8875 c0 -62 2 -95 6 -75 3 19 4 69 0 110 -5 70 -6 68 -6 -35z"/>
<path d="M3700 7695 c0 -8 4 -15 10 -15 5 0 7 -6 4 -14 -3 -8 9 -29 25 -47 67
-73 116 -119 127 -119 6 0 19 -9 29 -20 10 -11 20 -18 24 -16 3 2 15 -2 26
-10 12 -9 14 -14 5 -14 -9 0 -8 -6 5 -20 10 -11 24 -20 32 -20 7 0 13 -8 13
-18 0 -16 15 -22 86 -36 48 -9 88 -15 89 -14 2 2 1 36 -2 76 -5 66 -7 71 -20
52 -10 -14 -24 -20 -44 -18 -16 1 -29 5 -29 9 0 4 -13 12 -28 18 -16 7 -50 32
-77 56 -27 25 -54 45 -62 45 -7 0 -20 11 -28 24 -9 13 -31 31 -49 40 -18 9
-39 22 -46 31 -7 8 -19 15 -27 15 -8 0 -21 7 -29 15 -9 8 -20 15 -25 15 -5 0
-9 -7 -9 -15z"/>
<path d="M9096 7613 c-7 -46 -7 -134 1 -113 3 8 14 34 25 57 17 40 17 45 2 68
-9 14 -17 25 -19 25 -1 0 -5 -17 -9 -37z"/>
<path d="M3160 7610 c0 -10 17 -26 54 -53 30 -22 10 -36 -47 -34 l-52 2 -2
-45 c-1 -37 0 -40 6 -15 7 30 7 30 19 8 7 -13 9 -23 5 -23 -4 0 -3 -4 2 -8 6
-4 15 -16 21 -26 27 -50 140 -91 346 -126 82 -14 125 -27 158 -47 69 -43 115
-59 240 -81 117 -22 150 -21 207 4 17 8 40 14 52 14 17 0 21 6 20 33 0 17 -4
50 -8 72 -8 38 -9 39 -10 8 0 -17 -6 -35 -13 -39 -21 -13 -193 -12 -291 2 -70
10 -120 24 -173 49 -41 19 -77 35 -81 35 -4 0 -25 9 -47 19 -23 11 -72 33
-109 50 -78 34 -176 105 -178 128 -1 13 -69 66 -85 66 -8 0 -14 4 -14 9 0 4
-4 8 -10 8 -5 0 -10 -5 -10 -10z"/>
<path d="M4151 7546 c0 -35 3 -56 8 -50 4 5 5 32 1 59 l-7 50 -2 -59z"/>
<path d="M9088 7410 c-10 -24 -16 -150 -8 -150 4 0 13 7 20 15 24 29 126 90
170 101 40 10 42 12 23 22 -14 8 -31 8 -53 2 -18 -5 -56 -12 -85 -16 -50 -5
-54 -4 -57 18 -3 17 -6 19 -10 8z"/>
<path d="M9518 7228 c-29 -15 -65 -28 -81 -28 -19 0 -31 -7 -39 -24 -7 -16
-39 -39 -92 -65 -59 -30 -74 -41 -55 -41 14 0 48 11 75 25 27 14 57 25 66 25
9 0 20 5 23 10 3 6 17 10 30 10 26 0 196 82 214 103 21 27 -82 15 -141 -15z
m52 2 c0 -5 -5 -10 -11 -10 -5 0 -7 5 -4 10 3 6 8 10 11 10 2 0 4 -4 4 -10z"/>
<path d="M3152 7202 c-23 -11 -31 -21 -27 -33 3 -10 1 -20 -5 -24 -5 -3 -9
-23 -9 -43 1 -23 3 -29 6 -15 2 13 16 32 31 44 29 22 28 22 207 3 47 -5 73 -2
120 14 33 11 61 25 63 30 2 6 -31 13 -75 17 -43 3 -102 11 -132 16 -75 13
-140 9 -179 -9z"/>
<path d="M10005 7189 c3 -4 -4 -5 -15 -2 -11 3 -20 1 -20 -5 0 -17 45 -22 121
-12 171 22 236 13 321 -44 26 -17 26 -17 21 5 -4 13 -24 30 -52 43 -41 19 -65
21 -213 22 -92 0 -165 -3 -163 -7z"/>
<path d="M4184 7109 c-3 -6 -1 -16 5 -22 8 -8 11 -5 11 11 0 24 -5 28 -16 11z"/>
<path d="M10123 7036 c-84 -24 -178 -53 -210 -65 -32 -12 -107 -31 -168 -42
-100 -18 -403 -112 -415 -129 -3 -4 -22 -13 -43 -19 -20 -7 -35 -16 -32 -20 4
-7 -90 -45 -139 -56 -10 -2 -20 -6 -21 -7 -4 -4 -8 -69 -6 -103 l1 -30 16 31
c8 16 28 38 44 47 16 10 35 23 42 30 20 18 83 53 178 98 47 22 110 53 140 69
66 34 139 56 240 71 41 6 134 30 205 54 72 23 174 53 228 66 86 20 103 22 144
11 57 -16 80 -1 35 22 -44 23 -68 20 -239 -28z"/>
<path d="M9690 7063 c-45 -7 -164 -33 -197 -44 -18 -5 -40 -12 -50 -14 -25 -5
-82 -26 -123 -44 -19 -8 -39 -14 -44 -13 -5 2 -16 -4 -25 -12 -22 -20 -91 -42
-123 -39 -34 2 -40 -16 -36 -105 l3 -63 50 45 c32 29 44 45 34 46 -9 0 -22 6
-28 14 -15 18 15 37 99 60 36 10 121 36 190 56 151 46 210 60 245 60 19 0 26
4 22 14 -4 10 5 16 34 21 21 4 39 11 39 16 0 9 -41 10 -90 2z"/>
<path d="M4005 7026 c27 -24 100 -63 180 -97 17 -8 33 -15 38 -17 4 -2 7 8 7
22 0 26 -7 30 -44 26 -17 -2 -94 27 -106 40 -5 5 -78 42 -95 48 -5 2 4 -8 20
-22z"/>
<path d="M9095 7000 c-3 -5 1 -10 9 -10 8 0 18 5 21 10 3 6 -1 10 -9 10 -8 0
-18 -4 -21 -10z"/>
<path d="M10389 6920 c12 -11 28 -17 33 -14 6 4 0 13 -13 20 -36 20 -47 16
-20 -6z"/>
<path d="M3990 6887 c41 -19 92 -37 113 -41 47 -9 48 -26 2 -26 -19 0 -35 -3
-35 -8 0 -12 52 -31 102 -38 26 -4 56 -15 67 -26 23 -21 27 -58 9 -76 -8 -8
-8 -15 2 -27 7 -9 9 -15 4 -14 -5 1 -17 -1 -27 -6 -19 -8 -79 7 -127 32 -14 7
-34 13 -45 13 -11 0 -29 7 -39 15 -11 8 -28 15 -38 15 -10 0 -18 5 -18 10 0 6
-8 10 -17 10 -10 0 -53 18 -96 40 -85 44 -87 45 -87 30 0 -5 5 -10 12 -10 6 0
19 -6 27 -14 9 -8 57 -36 106 -62 50 -26 92 -51 93 -56 2 -4 10 -8 17 -8 7 0
49 -20 93 -45 44 -25 92 -45 106 -45 33 0 35 -28 4 -34 -59 -13 -59 -14 1 -13
51 0 66 -3 77 -18 13 -17 14 -17 14 11 0 59 -22 200 -45 290 -27 108 -32 119
-49 105 -11 -10 -187 6 -273 24 -15 4 6 -9 47 -28z"/>
<path d="M10205 6830 c3 -5 13 -10 21 -10 8 0 14 -7 14 -15 0 -8 5 -15 11 -15
5 0 7 -4 4 -10 -4 -6 6 -10 22 -10 15 0 50 -7 77 -15 70 -21 79 -20 65 7 -18
33 -32 45 -74 62 -42 18 -150 22 -140 6z"/>
<path d="M3193 6774 c-3 -9 -2 -19 4 -23 5 -3 18 -20 30 -36 25 -36 155 -110
289 -165 54 -22 102 -40 107 -40 9 0 222 -101 387 -184 90 -45 105 -56 105
-77 0 -18 -6 -25 -25 -26 -20 -2 -21 -1 -7 5 12 5 -1 8 -38 9 -32 1 -62 6 -68
12 -6 6 -20 11 -31 11 -12 0 -59 21 -106 48 -101 56 -172 87 -220 95 -26 5
-13 -4 50 -36 47 -24 119 -61 160 -82 89 -46 138 -65 242 -90 56 -14 79 -24
86 -39 7 -17 12 -8 26 49 10 39 22 78 28 88 10 20 2 38 -10 21 -10 -16 -67
-11 -88 7 -46 39 -159 87 -344 149 -36 12 -74 25 -85 30 -11 5 -56 23 -100 40
-44 17 -108 44 -143 60 -35 17 -65 30 -68 30 -6 0 -83 50 -107 70 -10 8 -27
32 -38 53 -22 41 -27 44 -36 21z"/>
<path d="M9765 6614 c-107 -14 -234 -35 -325 -53 -25 -5 -58 -12 -75 -14 -74
-13 -95 -21 -124 -47 -17 -16 -31 -28 -31 -26 0 2 -25 -22 -55 -52 -30 -30
-55 -58 -55 -62 0 -4 11 -15 24 -24 24 -15 25 -15 28 10 6 45 23 25 29 -33 3
-32 6 -49 7 -38 2 17 4 18 12 5 8 -12 10 -9 10 13 0 16 3 26 8 24 4 -3 8 11 9
30 1 20 6 40 12 46 5 5 7 16 4 23 -3 8 0 14 6 14 6 0 11 5 11 12 0 6 -9 3 -20
-7 -29 -26 -25 -5 5 28 61 65 138 75 330 44 68 -11 105 -13 150 -5 45 7 87 6
170 -6 127 -18 268 -33 375 -41 65 -4 72 -3 49 7 -14 7 -32 18 -40 24 -13 10
-93 21 -279 40 -61 6 -100 20 -100 36 0 4 27 17 60 29 33 12 60 26 60 30 0 13
-127 9 -255 -7z"/>
<path d="M9160 6593 c-46 -28 -80 -59 -80 -75 0 -16 16 -6 74 47 33 30 57 55
55 55 -2 -1 -24 -13 -49 -27z"/>
<path d="M3077 6500 c6 -31 43 -91 43 -69 0 37 94 55 205 39 44 -6 109 -16
144 -21 35 -4 73 -11 85 -14 18 -5 19 -5 4 5 -9 6 -63 22 -120 36 -81 21 -130
27 -230 28 -75 0 -129 5 -131 11 -2 6 -2 -1 0 -15z"/>
<path d="M9322 6438 c-5 -7 -20 -49 -31 -93 -35 -126 -76 -175 -149 -175 -16
0 -43 -3 -60 -6 -28 -6 -30 -10 -36 -63 -4 -31 -15 -90 -25 -133 l-18 -76 30
-6 c67 -13 113 4 158 58 17 20 17 20 63 -3 58 -30 57 -28 99 -132 20 -48 45
-102 56 -120 12 -19 21 -43 21 -54 0 -75 64 -233 117 -287 l36 -36 -19 -51
c-17 -48 -17 -53 -1 -86 10 -20 31 -44 47 -53 16 -9 30 -22 30 -28 0 -6 7 -33
15 -60 10 -35 33 -69 77 -118 78 -85 144 -195 177 -298 13 -39 31 -60 31 -35
0 7 -3 17 -6 20 -4 4 -17 32 -30 63 -19 48 -20 55 -6 50 12 -4 10 -1 -4 11
-12 10 -25 28 -29 41 -3 12 -11 22 -16 22 -6 0 -7 5 -3 12 4 7 3 8 -4 4 -7 -4
-12 -1 -12 8 0 20 17 30 23 14 4 -9 6 -8 6 2 0 8 -4 22 -9 30 -5 8 -10 11 -10
6 0 -5 -7 -2 -17 5 -15 13 -15 12 -4 -9 21 -39 4 -36 -23 5 -14 20 -26 50 -26
66 0 16 -4 26 -10 22 -13 -8 -13 20 -1 43 5 9 12 24 15 34 2 9 47 41 98 72
105 63 109 73 9 22 -36 -19 -74 -36 -83 -39 -17 -6 -68 -98 -68 -124 0 -7 -5
-13 -10 -13 -6 0 -9 12 -6 28 2 15 5 27 6 27 1 0 3 11 4 25 1 14 7 35 14 48
11 19 10 22 -3 22 -9 0 -18 -8 -22 -17 -3 -10 -13 -27 -22 -37 -9 -11 -11 -16
-4 -13 7 5 9 0 6 -14 -8 -30 -21 -11 -32 45 -5 27 -13 51 -18 55 -5 3 -12 14
-16 23 -3 10 -12 15 -20 12 -7 -2 -19 6 -27 21 -11 20 -11 34 -1 72 13 51 14
66 7 98 -2 11 -5 22 -5 25 -3 15 -51 61 -60 56 -5 -4 -7 4 -4 16 3 17 2 19 -5
9 -7 -9 -16 5 -35 55 -14 38 -29 85 -32 104 -4 19 -13 55 -20 80 -8 25 -16 61
-19 80 -6 32 -5 33 8 15 8 -11 17 -17 21 -14 8 8 -116 212 -156 258 -17 20
-29 28 -29 19 0 -8 8 -23 18 -34 25 -28 91 -128 86 -133 -2 -2 -15 11 -30 28
-14 17 -30 29 -35 25 -5 -3 -9 0 -9 5 0 6 -6 11 -14 11 -26 0 -93 76 -100 114
-8 42 -2 56 25 56 10 0 19 7 19 15 0 11 12 15 48 15 26 0 73 7 105 15 52 14
146 52 157 64 10 12 77 34 185 61 101 26 106 29 60 29 -75 0 -231 -36 -300
-68 -111 -53 -157 -71 -179 -73 -14 -1 -26 -7 -26 -12 0 -6 -4 -6 -10 0 -8 8
2 38 31 100 44 95 66 127 81 118 13 -8 38 15 38 36 0 29 -58 42 -78 18z"/>
<path d="M9341 6354 c0 -11 3 -14 6 -6 3 7 2 16 -1 19 -3 4 -6 -2 -5 -13z"/>
<path d="M4120 6331 c0 -5 7 -11 15 -15 8 -3 15 -1 15 3 0 5 -7 11 -15 15 -8
3 -15 1 -15 -3z"/>
<path d="M4139 6118 c0 -2 -2 -16 -4 -31 -2 -16 -9 -35 -16 -43 -7 -8 -12 -33
-11 -55 1 -24 -2 -38 -8 -34 -6 3 -10 -3 -10 -15 0 -11 -7 -37 -16 -58 -9 -20
-16 -46 -16 -58 1 -13 -8 -25 -24 -33 -24 -11 -25 -14 -19 -61 6 -43 4 -50
-10 -50 -10 0 -13 -5 -9 -12 5 -8 2 -9 -12 -4 -10 4 -41 12 -69 17 -27 4 -65
11 -82 15 -22 4 -33 2 -33 -5 0 -6 7 -11 16 -11 14 0 91 -37 104 -50 3 -3 20
-12 39 -21 l34 -15 -41 -17 c-46 -18 -58 -44 -48 -101 5 -25 1 -39 -15 -60
-18 -23 -19 -30 -8 -36 18 -11 7 -22 -25 -24 -20 -1 -26 -8 -31 -34 -7 -37 1
-56 18 -45 7 4 7 0 -1 -10 -8 -9 -11 -21 -7 -28 5 -8 1 -7 -15 1 -13 7 -35 16
-49 20 -14 4 -34 11 -43 15 -11 4 -18 3 -18 -4 0 -6 12 -14 28 -17 15 -4 45
-19 67 -33 22 -14 41 -26 43 -27 1 0 0 -9 -4 -18 -3 -9 -11 -13 -16 -10 -6 4
-5 10 3 16 10 6 7 7 -9 3 -13 -4 -28 -2 -35 3 -7 6 -34 17 -62 25 -27 8 -88
29 -134 46 -46 18 -89 30 -94 28 -6 -2 39 -22 99 -46 156 -60 176 -70 204 -92
14 -12 19 -18 12 -14 -7 4 -26 10 -42 15 -23 7 -30 5 -30 -6 0 -8 9 -14 20
-14 24 0 27 -27 6 -55 -8 -11 -12 -32 -9 -50 3 -20 -1 -36 -14 -50 -10 -12
-19 -38 -20 -64 -2 -24 -10 -52 -19 -62 -10 -11 -14 -27 -11 -40 3 -11 3 -18
0 -15 -7 7 -26 -44 -43 -116 -7 -26 -16 -51 -21 -54 -5 -3 -9 -20 -9 -37 0
-26 -2 -29 -11 -17 -9 12 -10 12 -5 -4 8 -23 -13 -144 -26 -152 -5 -3 -4 -12
4 -22 8 -10 -5 -6 -33 11 -48 27 -214 97 -231 97 -6 0 30 -20 79 -45 49 -24
97 -53 107 -64 20 -22 29 -119 14 -160 -18 -49 -1 -27 39 52 82 165 91 190
149 437 20 85 40 160 44 165 4 6 10 23 14 39 7 30 33 91 72 171 13 28 24 53
24 57 0 4 8 17 18 28 52 62 195 349 221 445 5 22 17 117 26 210 9 94 20 190
25 215 12 59 12 70 0 70 -5 0 -10 -1 -11 -2z"/>
<path d="M3078 5848 c-65 -14 -61 -26 5 -17 28 4 63 8 77 9 23 1 23 2 5 10
-24 10 -27 10 -87 -2z"/>
<path d="M3263 5833 c9 -2 25 -2 35 0 9 3 1 5 -18 5 -19 0 -27 -2 -17 -5z"/>
<path d="M3048 5423 c6 -2 18 -2 25 0 6 3 1 5 -13 5 -14 0 -19 -2 -12 -5z"/>
<path d="M3180 5420 c0 -5 5 -10 11 -10 5 0 7 5 4 10 -3 6 -8 10 -11 10 -2 0
-4 -4 -4 -10z"/>
<path d="M2950 5410 c-11 -7 -5 -8 20 -4 43 8 51 14 19 14 -13 0 -31 -5 -39
-10z"/>
<path d="M3218 5413 c7 -3 16 -2 19 1 4 3 -2 6 -13 5 -11 0 -14 -3 -6 -6z"/>
<path d="M3255 5410 c3 -5 8 -10 11 -10 2 0 4 5 4 10 0 6 -5 10 -11 10 -5 0
-7 -4 -4 -10z"/>
<path d="M3437 5369 c7 -7 15 -10 18 -7 3 3 -2 9 -12 12 -14 6 -15 5 -6 -5z"/>
<path d="M2962 5359 c-57 -10 -112 -34 -112 -49 0 -14 6 -12 24 5 22 23 151
47 219 43 31 -2 57 -1 57 4 0 10 -119 8 -188 -3z"/>
<path d="M3223 5349 c38 -5 109 -21 159 -35 50 -14 93 -23 96 -20 3 3 -1 7 -9
10 -117 34 -186 49 -244 52 l-70 3 68 -10z"/>
<path d="M10521 5335 c3 -2 36 -9 73 -14 65 -9 143 -41 158 -65 5 -7 8 -6 8 5
0 24 -105 67 -179 73 -35 4 -62 4 -60 1z"/>
<path d="M3580 5319 c0 -5 4 -9 9 -9 5 0 17 -3 27 -7 11 -4 15 -3 11 4 -9 14
-47 24 -47 12z"/>
<path d="M10375 5320 c-19 -5 -6 -6 35 -3 36 3 67 7 69 9 8 7 -73 2 -104 -6z"/>
<path d="M3640 5300 c0 -5 5 -10 11 -10 5 0 7 5 4 10 -3 6 -8 10 -11 10 -2 0
-4 -4 -4 -10z"/>
<path d="M10318 5303 c7 -3 16 -2 19 1 4 3 -2 6 -13 5 -11 0 -14 -3 -6 -6z"/>
<path d="M10235 5280 c-22 -11 -29 -17 -15 -14 38 10 87 32 70 33 -8 0 -33 -8
-55 -19z"/>
<path d="M3680 5279 c0 -5 5 -7 10 -4 6 3 10 8 10 11 0 2 -4 4 -10 4 -5 0 -10
-5 -10 -11z"/>
<path d="M10060 5210 c-13 -8 -12 -10 3 -10 9 0 17 5 17 10 0 12 -1 12 -20 0z"/>
<path d="M9995 5180 c-3 -6 1 -7 9 -4 18 7 21 14 7 14 -6 0 -13 -4 -16 -10z"/>
<path d="M9805 5140 c-3 -5 1 -10 9 -10 8 0 18 5 21 10 3 6 -1 10 -9 10 -8 0
-18 -4 -21 -10z"/>
<path d="M9785 5016 c-3 -9 -7 -23 -10 -31 -2 -8 0 -15 5 -15 11 0 25 48 16
57 -3 3 -8 -2 -11 -11z"/>
<path d="M3701 4904 c0 -11 3 -14 6 -6 3 7 2 16 -1 19 -3 4 -6 -2 -5 -13z"/>
<path d="M9891 4875 c0 -5 6 -21 14 -35 8 -14 14 -20 14 -15 0 6 -6 21 -14 35
-8 14 -14 21 -14 15z"/>
<path d="M2754 4589 c-32 -9 -49 -32 -38 -51 4 -5 16 0 29 12 15 14 48 25 101
34 l79 14 -70 0 c-38 0 -84 -4 -101 -9z"/>
<path d="M3118 4558 c6 -6 18 -8 28 -6 14 3 12 5 -9 10 -19 3 -25 2 -19 -4z"/>
<path d="M9964 4450 c17 -60 33 -105 34 -100 2 6 -5 41 -16 78 -11 37 -23 82
-27 100 -4 17 -10 32 -14 32 -5 0 6 -49 23 -110z"/>
<path d="M3270 4510 c8 -5 20 -10 25 -10 6 0 3 5 -5 10 -8 5 -19 10 -25 10 -5
0 -3 -5 5 -10z"/>
<path d="M10680 4511 c-39 -6 -34 -7 42 -12 101 -6 118 -17 152 -93 l22 -49
17 26 c15 23 15 29 2 60 -9 22 -26 40 -47 49 -40 19 -127 27 -188 19z"/>
<path d="M10305 4399 c-33 -17 -80 -46 -104 -65 -42 -32 -58 -38 -91 -35 -13
2 -13 0 -1 -8 11 -7 8 -16 -17 -47 -34 -41 -41 -64 -18 -64 8 0 29 -14 47 -31
19 -17 43 -31 55 -31 17 0 38 -35 119 -197 53 -108 103 -203 109 -211 18 -23
123 -249 147 -316 62 -176 79 -290 79 -524 0 -297 29 -447 135 -690 50 -115
86 -190 90 -190 6 0 -6 31 -39 101 -14 31 -32 78 -41 105 -9 27 -27 72 -40 99
-57 118 -97 382 -94 630 1 97 -3 183 -11 219 -6 33 -10 78 -6 100 3 26 2 34
-3 21 -7 -17 -10 -13 -21 25 -7 25 -14 53 -15 63 -1 10 -6 22 -11 25 -5 4 -18
32 -28 62 -10 30 -35 85 -54 123 -19 37 -31 74 -28 83 3 8 2 12 -4 9 -5 -3
-18 11 -27 32 -10 21 -22 41 -26 44 -5 3 -9 13 -11 21 -1 9 -8 23 -15 32 -7 9
-11 25 -8 35 3 12 0 18 -7 15 -12 -4 -53 73 -48 89 1 5 -2 6 -8 2 -5 -3 -10
-1 -10 5 0 5 -13 38 -29 72 -17 34 -27 66 -24 71 3 6 1 7 -5 3 -7 -4 -12 -1
-12 7 0 7 -11 24 -25 37 -26 25 -34 46 -12 34 10 -6 10 -4 0 7 -7 7 -13 36
-13 64 0 45 4 55 33 81 43 41 106 88 142 107 54 29 11 17 -50 -14z"/>
<path d="M10000 4330 c1 -3 7 -30 15 -60 l15 -55 -5 50 c-3 27 -10 54 -15 59
-6 6 -10 8 -10 6z"/>
<path d="M2661 4224 c0 -11 3 -14 6 -6 3 7 2 16 -1 19 -3 4 -6 -2 -5 -13z"/>
<path d="M10210 4140 c0 -5 5 -10 11 -10 5 0 7 5 4 10 -3 6 -8 10 -11 10 -2 0
-4 -4 -4 -10z"/>
<path d="M2625 4080 c-4 -17 -5 -34 -2 -36 2 -3 7 10 11 27 8 42 0 50 -9 9z"/>
<path d="M2591 3934 c0 -11 3 -14 6 -6 3 7 2 16 -1 19 -3 4 -6 -2 -5 -13z"/>
<path d="M2551 3784 c0 -11 3 -14 6 -6 3 7 2 16 -1 19 -3 4 -6 -2 -5 -13z"/>
<path d="M2541 3734 c0 -11 3 -14 6 -6 3 7 2 16 -1 19 -3 4 -6 -2 -5 -13z"/>
<path d="M5693 3293 c9 -2 25 -2 35 0 9 3 1 5 -18 5 -19 0 -27 -2 -17 -5z"/>
<path d="M7208 3293 c18 -2 45 -2 60 0 15 2 0 4 -33 4 -33 0 -45 -2 -27 -4z"/>
<path d="M7336 3289 c3 -5 26 -9 51 -9 26 0 44 2 42 4 -9 8 -98 13 -93 5z"/>
<path d="M5298 3283 c6 -2 18 -2 25 0 6 3 1 5 -13 5 -14 0 -19 -2 -12 -5z"/>
<path d="M5143 3273 c9 -2 25 -2 35 0 9 3 1 5 -18 5 -19 0 -27 -2 -17 -5z"/>
<path d="M7493 3273 c9 -2 23 -2 30 0 6 3 -1 5 -18 5 -16 0 -22 -2 -12 -5z"/>
<path d="M7558 3273 c7 -3 16 -2 19 1 4 3 -2 6 -13 5 -11 0 -14 -3 -6 -6z"/>
<path d="M7848 3243 c6 -2 18 -2 25 0 6 3 1 5 -13 5 -14 0 -19 -2 -12 -5z"/>
<path d="M4698 3233 c7 -3 16 -2 19 1 4 3 -2 6 -13 5 -11 0 -14 -3 -6 -6z"/>
<path d="M7948 3233 c7 -3 16 -2 19 1 4 3 -2 6 -13 5 -11 0 -14 -3 -6 -6z"/>
<path d="M2401 3214 c0 -11 3 -14 6 -6 3 7 2 16 -1 19 -3 4 -6 -2 -5 -13z"/>
<path d="M8018 3223 c12 -2 30 -2 40 0 9 3 -1 5 -23 4 -22 0 -30 -2 -17 -4z"/>
<path d="M4455 3210 c-42 -11 -1 -11 50 -1 34 7 35 9 10 9 -16 0 -43 -4 -60
-8z"/>
<path d="M8108 3213 c7 -3 16 -2 19 1 4 3 -2 6 -13 5 -11 0 -14 -3 -6 -6z"/>
<path d="M8173 3203 c9 -2 23 -2 30 0 6 3 -1 5 -18 5 -16 0 -22 -2 -12 -5z"/>
<path d="M4363 3193 c9 -2 23 -2 30 0 6 3 -1 5 -18 5 -16 0 -22 -2 -12 -5z"/>
<path d="M8273 3193 c9 -2 25 -2 35 0 9 3 1 5 -18 5 -19 0 -27 -2 -17 -5z"/>
<path d="M2392 3170 c0 -14 2 -19 5 -12 2 6 2 18 0 25 -3 6 -5 1 -5 -13z"/>
<path d="M8363 3183 c9 -2 25 -2 35 0 9 3 1 5 -18 5 -19 0 -27 -2 -17 -5z"/>
<path d="M4218 3173 c6 -2 18 -2 25 0 6 3 1 5 -13 5 -14 0 -19 -2 -12 -5z"/>
<path d="M8488 3173 c7 -3 16 -2 19 1 4 3 -2 6 -13 5 -11 0 -14 -3 -6 -6z"/>
<path d="M4168 3163 c6 -2 18 -2 25 0 6 3 1 5 -13 5 -14 0 -19 -2 -12 -5z"/>
<path d="M8568 3163 c7 -3 16 -2 19 1 4 3 -2 6 -13 5 -11 0 -14 -3 -6 -6z"/>
<path d="M8658 3153 c12 -2 32 -2 45 0 12 2 2 4 -23 4 -25 0 -35 -2 -22 -4z"/>
<path d="M4043 3143 c9 -2 23 -2 30 0 6 3 -1 5 -18 5 -16 0 -22 -2 -12 -5z"/>
<path d="M8741 3146 c2 -2 24 -6 49 -9 30 -4 38 -3 25 3 -19 8 -83 14 -74 6z"/>
<path d="M8888 3123 c6 -2 18 -2 25 0 6 3 1 5 -13 5 -14 0 -19 -2 -12 -5z"/>
<path d="M2382 3100 c0 -14 2 -19 5 -12 2 6 2 18 0 25 -3 6 -5 1 -5 -13z"/>
<path d="M3868 3113 c7 -3 16 -2 19 1 4 3 -2 6 -13 5 -11 0 -14 -3 -6 -6z"/>
<path d="M9010 3109 c25 -4 61 -7 80 -7 29 1 26 2 -15 8 -69 11 -126 10 -65
-1z"/>
<path d="M9185 3090 c22 -4 72 -13 112 -20 40 -6 88 -20 108 -30 31 -16 43
-17 75 -10 18 3 -124 42 -202 55 -96 15 -165 19 -93 5z"/>
<path d="M2371 3054 c0 -11 3 -14 6 -6 3 7 2 16 -1 19 -3 4 -6 -2 -5 -13z"/>
<path d="M3613 3033 c-18 -9 -33 -24 -33 -32 1 -14 2 -14 13 0 7 9 26 23 42
32 39 21 20 21 -22 0z"/>
<path d="M2346 2965 c-3 -9 -6 -22 -5 -28 0 -7 5 -1 10 12 5 13 8 26 5 28 -2
2 -6 -3 -10 -12z"/>
<path d="M2266 2765 c-9 -26 -7 -32 5 -12 6 10 9 21 6 23 -2 3 -7 -2 -11 -11z"/>
<path d="M2196 2563 c-6 -14 -5 -15 5 -6 7 7 10 15 7 18 -3 3 -9 -2 -12 -12z"/>
<path d="M11108 2237 c-4 -96 3 -158 15 -139 5 6 12 12 17 12 11 0 40 -75 40
-104 0 -13 9 -34 19 -47 15 -19 20 -45 22 -116 2 -50 1 -94 -2 -97 -3 -4 5
-43 19 -89 50 -169 39 -263 -34 -293 -44 -18 -76 -10 -119 31 -44 43 -66 87
-68 135 -1 26 -5 36 -14 33 -7 -3 -13 1 -13 9 0 7 -9 31 -20 53 -11 22 -18 46
-16 55 3 8 -6 47 -19 85 -18 51 -23 59 -18 30 3 -22 10 -50 14 -63 13 -33 11
-52 -4 -52 -7 0 -29 -14 -50 -31 -31 -25 -37 -37 -37 -68 0 -33 -4 -38 -35
-50 -38 -14 -75 -54 -75 -82 0 -23 13 -24 34 -4 19 20 76 32 76 16 0 -6 -10
-11 -22 -11 -14 0 6 -14 51 -36 40 -19 79 -33 86 -30 7 2 25 -2 40 -10 15 -8
34 -14 41 -14 8 0 14 -3 14 -7 0 -18 65 -43 110 -43 41 0 51 4 61 23 6 12 18
29 25 37 8 8 28 32 46 52 18 21 50 44 71 53 43 18 43 19 18 44 -23 23 -43 126
-40 211 1 36 -4 85 -11 110 -6 25 -13 69 -15 99 -2 30 -8 57 -14 60 -5 3 -9
22 -8 41 1 24 -2 34 -11 32 -7 -1 -22 14 -33 33 -19 32 -30 39 -51 36 -4 0
-10 16 -14 37 -7 41 -20 70 -41 90 -7 7 -13 22 -13 33 0 10 -4 19 -9 19 -5 0
-11 -37 -13 -83z m62 -87 c0 -5 -5 -10 -11 -10 -5 0 -7 5 -4 10 3 6 8 10 11
10 2 0 4 -4 4 -10z m-290 -590 c0 -5 -5 -10 -11 -10 -5 0 -7 5 -4 10 3 6 8 10
11 10 2 0 4 -4 4 -10z"/>
<path d="M5555 2154 c-361 -16 -886 -46 -955 -54 -47 -6 -175 -15 -285 -20
-303 -15 -487 -39 -545 -70 -10 -6 -28 -10 -40 -10 -25 0 -153 -64 -171 -86
-9 -11 -9 -18 -1 -26 9 -9 16 -6 29 9 22 25 87 58 133 68 19 4 45 13 56 20 70
44 321 75 611 75 137 0 223 4 229 10 28 28 436 39 452 12 7 -10 142 -33 198
-32 16 0 38 -1 49 -1 31 -1 104 11 170 27 178 45 245 54 435 60 151 5 204 3
235 -7 38 -13 40 -16 43 -59 9 -123 -34 -1684 -55 -1978 l-6 -92 91 0 91 0 0
78 c0 42 5 100 10 129 6 29 13 101 17 160 6 105 30 193 53 193 5 0 7 10 4 23
-3 12 -3 19 2 15 4 -4 25 13 46 38 43 50 53 47 15 -5 -52 -70 -87 -206 -85
-327 1 -38 4 -59 6 -47 2 13 9 23 14 23 5 0 9 9 9 20 0 13 7 20 20 20 11 0 20
6 20 14 0 18 -40 13 -52 -6 -4 -7 -8 -8 -8 -3 0 24 19 36 51 33 19 -2 37 -7
40 -11 7 -10 42 96 42 129 0 13 5 24 11 24 12 0 25 -41 75 -235 16 -60 39
-145 51 -188 22 -75 24 -77 54 -77 l32 0 -7 73 c-4 39 -12 124 -18 187 -7 63
-18 189 -26 280 -22 246 -22 252 -49 480 -3 25 -17 144 -31 265 -14 121 -32
272 -40 335 -16 119 -31 282 -42 433 l-6 87 106 0 c233 0 455 -22 510 -51 10
-6 80 -15 156 -21 132 -11 140 -11 209 11 91 30 123 29 737 -19 141 -11 431
-35 598 -50 173 -15 347 -47 379 -71 24 -17 38 -19 92 -13 40 4 77 2 100 -6
31 -10 38 -18 48 -56 7 -24 15 -44 19 -44 14 0 18 31 6 57 -10 22 -9 27 2 31
49 16 -417 97 -709 122 -672 60 -1176 95 -1565 110 -259 11 -1507 21 -1660 14z
m912 -205 c3 -16 9 -29 13 -29 4 0 7 -41 7 -90 0 -50 3 -93 6 -97 4 -3 2 -12
-4 -19 -7 -9 -4 -16 12 -27 11 -9 18 -20 15 -25 -3 -6 -1 -68 5 -138 13 -167
20 -262 20 -296 0 -16 4 -28 9 -28 16 0 11 -22 -7 -36 -17 -13 -17 -15 1 -29
12 -9 14 -15 7 -15 -9 0 -11 -10 -7 -33 l6 -32 -14 30 c-11 23 -15 25 -15 11
-2 -43 -16 -4 -24 67 -1 10 -7 21 -13 25 -17 11 -26 45 -14 52 6 4 7 15 4 25
-7 18 -8 18 -15 -1 -6 -15 -8 -13 -8 11 -2 41 -27 133 -41 151 -10 11 -10 14
0 14 12 0 12 4 -8 100 -6 25 -9 64 -7 88 1 23 -2 42 -6 42 -5 0 -9 11 -9 24 0
14 -4 28 -10 31 -12 7 -14 26 -2 24 19 -3 25 2 12 11 -13 9 -13 12 3 24 22 17
22 34 1 38 -14 2 -17 15 -17 61 1 68 17 91 63 93 27 1 32 -3 37 -27z m-90
-351 c-3 -7 -5 -2 -5 12 0 14 2 19 5 13 2 -7 2 -19 0 -25z m167 -652 c14 -32
26 -63 26 -68 0 -5 9 -28 20 -50 20 -41 19 -66 -1 -38 -9 12 -10 11 -5 -3 3
-11 9 -31 13 -45 6 -24 5 -26 -10 -13 -10 7 -17 22 -17 32 0 9 -7 24 -15 33
-8 8 -15 30 -15 49 0 19 -9 46 -20 60 -12 14 -22 39 -23 56 -1 16 -5 27 -9 24
-5 -2 -8 4 -8 14 0 10 -9 45 -19 78 -11 34 -22 83 -25 110 -6 43 -1 35 37 -65
25 -63 56 -141 71 -174z m16 -230 c0 -3 -4 -8 -10 -11 -5 -3 -10 -1 -10 4 0 6
5 11 10 11 6 0 10 -2 10 -4z m40 -36 c0 -13 -7 -20 -20 -20 -13 0 -20 7 -20
20 0 13 7 20 20 20 13 0 20 -7 20 -20z m-41 -38 c1 -7 -3 -10 -9 -7 -5 3 -10
18 -9 33 0 24 1 25 9 7 5 -11 9 -26 9 -33z m38 -64 c-2 -13 -4 -3 -4 22 0 25
2 35 4 23 2 -13 2 -33 0 -45z m43 -133 c0 -5 -5 -3 -10 5 -5 8 -10 20 -10 25
0 6 5 3 10 -5 5 -8 10 -19 10 -25z m-16 -21 c12 -32 5 -48 -9 -19 -13 30 -13
30 -15 5 -1 -14 -4 -19 -7 -12 -6 16 3 42 16 42 5 0 12 -7 15 -16z m-7 -76
c-3 -8 -6 -5 -6 6 -1 11 2 17 5 13 3 -3 4 -12 1 -19z m10 -70 c-3 -8 -6 -5 -6
6 -1 11 2 17 5 13 3 -3 4 -12 1 -19z"/>
<path d="M2341 2115 c1 -22 -2 -48 -5 -57 -4 -9 -3 -25 3 -37 17 -30 13 -59
-9 -81 -12 -12 -18 -25 -15 -30 4 -6 -11 -10 -34 -10 -23 0 -41 -4 -41 -10 0
-5 14 -10 30 -10 17 0 30 -5 30 -11 0 -6 6 -9 14 -6 10 4 12 0 9 -14 -3 -10
-9 -19 -14 -19 -4 0 -14 -18 -20 -40 -10 -32 -10 -45 0 -64 15 -27 9 -54 -22
-105 -19 -31 -21 -32 -34 -16 -22 31 -23 11 -3 -43 12 -31 20 -77 20 -112 0
-54 -2 -61 -27 -74 -26 -14 -27 -15 -5 -16 13 0 22 -6 22 -15 0 -8 7 -15 16
-15 8 0 12 4 9 10 -8 12 12 50 27 50 5 0 8 -9 5 -19 -2 -10 -1 -25 4 -32 5 -8
3 -17 -4 -22 -9 -5 -5 -13 12 -25 32 -23 74 -64 86 -84 7 -12 32 -19 89 -24
58 -5 77 -4 72 5 -4 6 -24 11 -44 11 -47 0 -77 20 -102 70 -25 49 -26 120 -4
302 27 228 10 436 -46 543 l-20 40 1 -40z m35 -626 c-3 -17 -6 -41 -6 -53 -1
-16 -6 -11 -20 18 -19 37 -18 62 1 51 5 -4 9 -1 9 4 0 6 5 11 11 11 8 0 9 -11
5 -31z m-88 -64 c-3 -3 -9 2 -12 12 -6 14 -5 15 5 6 7 -7 10 -15 7 -18z"/>
<path d="M1996 2085 c-9 -26 -7 -32 5 -12 6 10 9 21 6 23 -2 3 -7 -2 -11 -11z"/>
<path d="M1965 2010 c-3 -5 -1 -10 4 -10 6 0 11 5 11 10 0 6 -2 10 -4 10 -3 0
-8 -4 -11 -10z"/>
<path d="M10867 1949 c4 -13 8 -18 11 -10 2 7 -1 18 -6 23 -8 8 -9 4 -5 -13z"/>
<path d="M1937 1940 c-4 -14 -6 -36 -6 -50 1 -18 4 -14 10 14 10 44 6 75 -4
36z"/>
<path d="M1945 1820 c4 -13 11 -70 16 -125 l8 -100 -4 114 c-2 69 -8 118 -16
125 -8 8 -9 5 -4 -14z"/>
<path d="M1963 1550 c0 -25 2 -35 4 -22 2 12 2 32 0 45 -2 12 -4 2 -4 -23z"/>
<path d="M11040 1491 c0 -5 7 -15 17 -22 15 -13 15 -12 4 9 -12 23 -21 28 -21
13z"/>
<path d="M1972 1450 c0 -14 2 -19 5 -12 2 6 2 18 0 25 -3 6 -5 1 -5 -13z"/>
<path d="M1986 1335 c5 -84 19 -117 56 -136 17 -8 15 -3 -9 21 -29 27 -33 37
-34 88 -1 31 -5 68 -10 82 -6 16 -7 -3 -3 -55z"/>
<path d="M10720 1385 c-6 -15 -6 -34 0 -47 10 -26 10 -27 15 30 4 48 -1 54
-15 17z"/>
<path d="M2623 1314 c-9 -25 12 -39 39 -26 13 6 17 11 11 11 -7 1 -13 8 -13
16 0 20 -29 19 -37 -1z"/>
<path d="M10900 1275 c14 -8 30 -14 35 -14 6 0 -1 6 -15 14 -14 8 -29 14 -35
14 -5 0 1 -6 15 -14z"/>
<path d="M2573 1236 c-32 -28 -30 -33 15 -42 32 -6 32 -6 30 30 -3 43 -8 44
-45 12z"/>
<path d="M2084 1176 c11 -9 24 -16 30 -16 12 0 7 5 -24 19 -24 11 -24 11 -6
-3z"/>
<path d="M2902 1164 c-7 -8 -8 -14 -3 -14 10 0 25 19 20 25 -2 1 -10 -3 -17
-11z"/>
<path d="M10915 1151 c-6 -21 13 -61 29 -61 5 0 2 8 -7 18 -10 11 -14 26 -10
40 7 27 -3 29 -12 3z"/>
<path d="M11225 1150 c-16 -7 -17 -9 -3 -9 9 -1 20 4 23 9 7 11 7 11 -20 0z"/>
<path d="M2870 1070 c-13 -8 -12 -10 3 -10 9 0 17 5 17 10 0 12 -1 12 -20 0z"/>
<path d="M2265 1060 c3 -5 11 -10 16 -10 6 0 7 5 4 10 -3 6 -11 10 -16 10 -6
0 -7 -4 -4 -10z"/>
<path d="M2690 1047 c0 -7 -9 -18 -21 -25 -28 -18 -18 -26 12 -10 24 13 39 48
19 48 -5 0 -10 -6 -10 -13z"/>
<path d="M2335 1030 c3 -5 11 -10 16 -10 6 0 7 5 4 10 -3 6 -11 10 -16 10 -6
0 -7 -4 -4 -10z"/>
<path d="M2378 1013 c7 -3 16 -2 19 1 4 3 -2 6 -13 5 -11 0 -14 -3 -6 -6z"/>
<path d="M2470 1010 c-12 -8 -10 -10 8 -10 13 0 20 4 17 10 -7 12 -6 12 -25 0z"/>
</g>
</svg>
